<svg xmlns="http://www.w3.org/2000/svg" viewBox="0 0 900 600"><path fill="#fbf3eb" stroke="#fbf3eb" d="M676.24 45.226c-.229 43.709-.328 45.87-2.236 49-1.098 1.801-1.98 3.724-1.96 4.274.02.55.748-.35 1.618-2 2.446-4.641 5.469-7.594 9.838-9.61 2.2-1.015 3.275-1.856 2.39-1.868-.886-.012-3.244 1.086-5.24 2.441l-3.63 2.463-.27-45.213L676.479-.5l-.239 45.726m12.999-2.597L689 85.757l3.04 1.26c1.672.692 4.673 3.109 6.669 5.371 3.313 3.755 3.452 3.822 1.605.777-1.113-1.834-3.327-4.194-4.919-5.243-1.592-1.05-2.31-1.912-1.595-1.915 2.74-.014 7.36 3.231 10.22 7.179 1.639 2.263 2.98 3.612 2.98 2.999C707 92.53 697.278 85 692.56 85h-2.539l-.271-42.75-.272-42.75-.239 43.129m24.004 24.621L713 135h-2.162c-4.899 0-14.857 8.471-14.833 12.618.003.485 1.065-.869 2.36-3.008 2.587-4.274 8.834-8.597 12.435-8.605 5.277-.012 12.406 6.1 14.735 12.632.788 2.209 1.389 3.007 1.405 1.863.043-3.139-4.148-9.723-7.721-12.132-2.044-1.377-2.781-2.38-1.985-2.7.696-.281.257-.546-.977-.589l-2.243-.079-.264-67.75-.264-67.75-.243 67.75M436 2.882c0 1.1.45 2.278 1 2.618.55.34 1-.282 1-1.382 0-1.1-.45-2.278-1-2.618-.55-.34-1 .282-1 1.382M435.158 8c0 1.375.227 1.938.504 1.25.278-.687.278-1.812 0-2.5-.277-.687-.504-.125-.504 1.25m3 1c0 1.375.227 1.938.504 1.25.278-.687.278-1.812 0-2.5-.277-.687-.504-.125-.504 1.25m-3.963 4.5c.02 1.65.244 2.204.498 1.231.254-.973.237-2.323-.037-3-.274-.677-.481.119-.461 1.769m4.963.5c0 1.375.227 1.938.504 1.25.278-.687.278-1.812 0-2.5-.277-.687-.504-.125-.504 1.25m-6 5c0 1.375.227 1.938.504 1.25.278-.687.278-1.812 0-2.5-.277-.687-.504-.125-.504 1.25m6.921.583c.048 1.165.285 1.402.604.605.289-.722.253-1.585-.079-1.917-.332-.332-.568.258-.525 1.312M432.158 24c0 1.375.227 1.938.504 1.25.278-.687.278-1.812 0-2.5-.277-.687-.504-.125-.504 1.25m9.037.5c.02 1.65.244 2.204.498 1.231.254-.973.237-2.323-.037-3-.274-.677-.481.119-.461 1.769M431.158 29c0 1.375.227 1.938.504 1.25.278-.687.278-1.812 0-2.5-.277-.687-.504-.125-.504 1.25m11 1c0 1.375.227 1.938.504 1.25.278-.687.278-1.812 0-2.5-.277-.687-.504-.125-.504 1.25m-12 4c0 1.375.227 1.938.504 1.25.278-.687.278-1.812 0-2.5-.277-.687-.504-.125-.504 1.25m13 1c0 1.375.227 1.938.504 1.25.278-.687.278-1.812 0-2.5-.277-.687-.504-.125-.504 1.25m-14.978 8.885c-.684 4.062-1.004 7.624-.712 7.917.293.292.532-.207.532-1.11 0-.902 1.35-2.339 3-3.192 1.65-.853 3-1.781 3-2.061s-.87-.044-1.934.526c-2.852 1.526-3.231 1.311-2.882-1.638.409-3.461 2.168-3.975 4.754-1.389 1.134 1.134 2.062 1.809 2.062 1.5 0-1.798 10.009 5.125 10.079 6.971.043 1.15.27 1.636.504 1.079.233-.556-.14-4.113-.829-7.905-1.157-6.36-1.37-6.751-2.754-5.047-.825 1.017-.989 1.542-.364 1.167 1.135-.68 2.323 2.107 2.35 5.513.013 1.552-.325 1.517-3.517-.367-3.296-1.945-3.413-2.179-1.75-3.521 1.609-1.3 1.553-1.327-.583-.287-2.732 1.331-8.821-1.263-9.391-4.001-.177-.847-.881 1.783-1.565 5.845M426.158 55c0 1.375.227 1.938.504 1.25.278-.687.278-1.812 0-2.5-.277-.687-.504-.125-.504 1.25m21 1c0 1.375.227 1.938.504 1.25.278-.687.278-1.812 0-2.5-.277-.687-.504-.125-.504 1.25m-22 4c0 1.375.227 1.938.504 1.25.278-.687.278-1.812 0-2.5-.277-.687-.504-.125-.504 1.25m-280.96.122c-2.707 1.002-2.909 1.877-.274 1.188 1.508-.395 2.017.112 2.35 2.343l.426 2.847.15-2.75c.093-1.711.717-2.75 1.65-2.75 1.308 0 1.531 5.856 1.739 45.75l.24 45.75.271-44.947c.175-29.026.63-45.17 1.286-45.575 1.687-1.043-5.46-2.735-7.838-1.856m16.257 1.064c-3.825.999-5.271 1.619-3.212 1.379l3.743-.437.264 67.686.264 67.686.243-68.25L162 61h2.434c1.887 0 2.527.617 2.85 2.75l.416 2.75.15-2.82c.123-2.318.55-2.762 2.4-2.5 2.249.32 2.25.336 2.776 25.32l.527 25 .223-24.667c.159-17.461.558-24.778 1.369-25.048.63-.21-.853-.839-3.295-1.398-3.534-.808-5.86-.645-11.395.799m25.545-.63c-1.925.71-2.94 1.326-2.255 1.368.983.06 1.3 20.687 1.505 97.826l.26 97.75.245-98.25c.211-84.53.445-98.25 1.679-98.25.796 0 1.618 1.223 1.85 2.75l.416 2.75.15-2.75c.083-1.513.6-2.75 1.15-2.75.661 0 1.076 45.066 1.224 132.75.123 73.013.359 125.212.524 116l.3-16.75h116.765l-.545 2.085c-.3 1.146-1.046 2.24-1.657 2.431-.611.191-3.746 1.079-6.966 1.974-8.702 2.418-14.332 8.147-20.549 20.909-8.115 16.657-13.82 33.138-15.527 44.851l-.692 4.75H273v4.375c0 2.406-.281 5.781-.625 7.5L271.75 385h-34.375c-22.25 0-34.375-.353-34.375-1 0-.55-1.155-1-2.567-1-2.066 0-2.45-.371-1.966-1.897.452-1.423-.28-2.442-2.932-4.082-2.514-1.553-3.574-2.955-3.671-4.853-.12-2.356-.187-2.405-.57-.418-.379 1.972-1.045 2.25-5.378 2.25-6.863 0-11.651 4.285-12.85 11.5-.725 4.363-.846 3.667-.948-5.469L172 369.563l5.08-5.144c4.085-4.137 5.015-5.695 4.75-7.963l-.33-2.82-4.738 4.932-4.738 4.932-.012-8.715c-.011-7.684-.248-8.841-2.012-9.785-1.822-.975-2-.76-2 2.408 0 3.028-.551 3.807-4.25 6.015l-4.25 2.537-2.172-6.23c-2.589-7.427-3.049-6.693-.625.997 1.479 4.691 1.512 5.525.25 6.323-2.68 1.696.084.972 4.087-1.07l3.96-2.021v20.33c0 24.588-.609 26.525-6.409 20.376L155 390.858v3.375c0 2.577.856 4.19 3.619 6.821 3.736 3.557 6.381 8.448 6.381 11.8 0 3.27-5.831 3.454-8.569.271-3.19-3.709-9.389-3.625-13.181.179-2.187 2.193-2.467 2.934-1.368 3.618 1.085.674.931 1.003-.715 1.525-5.503 1.747-3.931 25.468 1.894 28.585 2.896 1.55 8.939-1.271 8.939-4.172 0-2.13.068-2.15 1.354-.391 1.309 1.79 1.506 1.777 6.003-.4 2.847-1.378 4.397-2.7 3.999-3.41-.467-.833-.321-.858.517-.089.838.768 1.091 7.262.897 23l-.27 21.93-11.761.282c-11.575.277-11.753.317-11.24 2.5C142.875 492.14 154 546.216 154 547.049c0 .584-14.138.951-36.667.951-20.166 0-36.458.208-36.204.462.254.255 132.517.524 293.917.6 287.276.134 471.296-.206 439.497-.811-11.205-.213-16.189-.668-16.735-1.527-.613-.965-.781-.964-.793.002-.012.953-13.484 1.225-60.765 1.224-42.103-.001-60.21-.317-58.992-1.03.967-.565 2.157-.781 2.645-.48.488.302 1.192-.236 1.564-1.196.622-1.606.772-1.614 1.883-.105 1.083 1.469 1.327 1.384 2.369-.823 1.053-2.232 1.004-2.343-.529-1.186-.929.701.089-.616 2.263-2.927 2.174-2.312 4.171-4.203 4.437-4.203s-.809 1.35-2.39 3-2.37 3-1.754 3c1.732 0 7.977-8.119 10.32-13.417 3.267-7.386 4.034-23.583 1.117-23.583-1.981 0-2.131.599-2.437 9.75l-.327 9.75-.21-9.69-.209-9.689-3.75-.393-3.75-.392 3.739-.168 3.739-.168.272-41.25.273-41.25.238 41.25L697 504l2.25-.007c1.237-.003 3.6-.9 5.25-1.992l3-1.986.632 2.743c.623 2.706.633 2.699.75-.476.107-2.908 1.095-3.894 10.281-10.25 11.607-8.031 10.82-7.795 15.461-4.641l3.519 2.39-14.822 10.141c-13.963 9.554-14.854 10.009-15.394 7.86-.504-2.01-.633-1.894-1.077.968-.277 1.788-.315 3.25-.085 3.25.23 0 7.418-4.792 15.974-10.648l15.556-10.648 3.103 1.703c9.394 5.157 31.076 21.287 31.712 23.593.517 1.869.686 1.996.672.5-.026-2.817-1.52-8.385-1.664-6.201-.118 1.804-2.876.096-25.932-16.066l-6.314-4.425 3.258-2.404c1.792-1.322 3.636-2.404 4.098-2.404 1.541 0 21.872 14.096 22.431 15.553.303.789.889 1.227 1.302.971.413-.255 4.689 2.222 9.501 5.506 9.743 6.649 10.568 6.942 10.468 3.72-.06-1.904-.178-1.977-.773-.473-.612 1.55-1.853.994-9.68-4.336-4.937-3.362-9.127-6.524-9.31-7.027-.184-.503-.774-.914-1.313-.914-1.193 0-20.854-13.247-20.854-14.051 0-1.667 15.385-10.947 16.15-9.741.586.923.829.722.852-.708.042-2.625 14.043-12.027 15.2-10.207.485.762.773.356.783-1.102.017-2.609.335-2.739-8.624 3.52-7.03 4.911-8.061 5.153-8.663 2.039-.24-1.238-.316-.9-.17.75.373 4.222-15.314 15.501-18.867 13.565-3.193-1.739-6.076-3.997-5.588-4.377 7.457-5.804 22.889-15.363 23.272-14.416.273.675.533.236.576-.977.068-1.91-1.558-1.069-12.145 6.28-6.723 4.667-12.703 8.359-13.288 8.205-4.021-1.058-23.399-15.553-23.771-17.78l-.417-2.5-.15 2.557c-.129 2.197 1.465 3.655 11.35 10.378 6.325 4.303 11.5 8.178 11.5 8.612 0 .435-1.581 1.767-3.513 2.961-4.077 2.52-1.576 3.682-21.301-9.898L700 462.72V435H716.873l.404 3.25.403 3.25.16-3.25.16-3.25h19.917c14.997 0 20.041.309 20.421 1.25.403 1 .52 1 .583 0 .111-1.762 16.706-1.762 17.417 0 .277.688.504-.1.504-1.75s-.222-2.453-.493-1.785c-.37.913-7.563 1.225-28.857 1.252l-28.365.037-.403-3.252-.404-3.252-.16 3.25L718 434h-16.728l-.636-4.64c-1.002-7.306-.744-19.291.464-21.546.799-1.495.799-1.87 0-1.376-1.919 1.186-1.52-130.844.4-132.438 2.594-2.153 2.174-36.08-.476-38.479-1.087-.983-1.721-2.202-1.408-2.708 1.119-1.812-.752-12.813-2.18-12.813-1.134 0-1.375 7.115-1.414 41.679-.025 22.923-.266 41.898-.534 42.166-.268.269-.488-18.46-.488-41.618v-42.106l-3.75-.393-3.75-.392 3.72-.168 3.72-.168.313-12.75.312-12.75.218 12.75c.18 10.57.473 12.75 1.717 12.75 1.257 0 1.5-2.12 1.5-13.079 0-13.714-1.615-20.381-7.175-29.621-2.588-4.299-9.825-8.897-9.825-6.241 0 .582.384.822.853.532.469-.29 1.66.063 2.646.785 1.692 1.237 1.679 1.303-.245 1.161-1.121-.082-3.1-.933-4.396-1.89-1.297-.957-1.795-1.467-1.108-1.134.688.333 1.25.147 1.25-.414 0-.56-1.237-.973-2.75-.918-1.513.055-5.015-.383-7.784-.974-4.275-.911-146.141-.729-153.966.198-6.528.773-15.068 8.144-18.65 16.095-2.208 4.902-2.246 5.634-1.966 37.238.157 17.73-.035 37.193-.428 43.25L494.743 275H469v78h27v17h8v15h-75.607c-71.605 0-75.57-.093-74.911-1.75.383-.963 1.844-4.815 3.246-8.561 1.798-4.804 2.862-6.499 3.611-5.75.716.716 15.453 1.061 45.361 1.061H450v-58H379.825l-4.163-4.56c-3.333-3.652-6.054-5.315-13.662-8.349-9.077-3.619-9.514-3.933-9.822-7.049-.219-2.226.321-3.945 1.703-5.415 4.776-5.085 8.978-31.124 5.97-36.998-2.363-4.612-7.172-8.526-11.993-9.762L343 238.622V84H193v-5.988l78.25-.262 78.25-.262-78.25-.244L193 77v-6h165v-6h-82.5c-81.341 0-82.5-.028-82.5-1.965 0-2.954-2.916-3.987-7-2.479M448.158 61c0 1.375.227 1.938.504 1.25.278-.687.278-1.812 0-2.5-.277-.687-.504-.125-.504 1.25m-269.38.166c-.276.734-.189 2.21.192 3.28.671 1.883.712 1.878 1.239-.139.646-2.47-.631-5.273-1.431-3.141M424.195 65.5c.02 1.65.244 2.204.498 1.231.254-.973.237-2.323-.037-3-.274-.677-.481.119-.461 1.769m-285.926.193c.973.254 2.323.237 3-.037.677-.274-.119-.481-1.769-.461-1.65.02-2.204.244-1.231.498m310.81.89c.048 1.165.285 1.402.604.605.289-.722.253-1.585-.079-1.917-.332-.332-.568.258-.525 1.312M193 68c0 1.984.667 2 82 2s82-.016 82-2-.667-2-82-2-82 .016-82 2m237.534.934c-.844 1.631-1.482 4.227-1.419 5.766.103 2.506.188 2.429.807-.734.847-4.322 1.801-5.966 3.463-5.966 2.228 0 5.453 4.387 5.88 8l.415 3.5.127-3.5c.134-3.706-1.863-6.889-5.564-8.87-1.929-1.032-2.347-.829-3.709 1.804M423.158 71c0 1.375.227 1.938.504 1.25.278-.687.278-1.812 0-2.5-.277-.687-.504-.125-.504 1.25m27 1c0 1.375.227 1.938.504 1.25.278-.687.278-1.812 0-2.5-.277-.687-.504-.125-.504 1.25m-28 4c0 1.375.227 1.938.504 1.25.278-.687.278-1.812 0-2.5-.277-.687-.504-.125-.504 1.25m29 1c0 1.375.227 1.938.504 1.25.278-.687.278-1.812 0-2.5-.277-.687-.504-.125-.504 1.25m-17.956 4.236c3.323 3.249 4.267 10.147 1.048 7.654-1.667-1.291-1.667-1.257 0 .706 1.379 1.624 1.787 4.165 1.925 11.983.096 5.456.344 7.896.552 5.421.264-3.14 1.042-5.022 2.576-6.228 1.208-.95 1.724-1.738 1.147-1.75-.577-.012-1.59.518-2.25 1.178-1.569 1.569-1.699-15.399-.14-18.311.967-1.808.883-1.87-.958-.721-1.705 1.065-2.38.956-4.358-.704-1.287-1.08-1.081-.733.458.772m16.376 1.997L445 88.466l.214 11.517.214 11.517.32-11.407c.309-11.013.423-11.524 3.286-14.785L452 81.93l.115 3.285.115 3.285.729-3.761c1.103-5.687 1.294-5.582 8.979 4.953 6.85 9.392 7.057 9.836 4.858 10.458-1.948.552-1.803.666.954.75 2.932.09 4.485-1.23 2.431-2.067C469.276 98.465 456 80.536 456 79.682c0-.294.788-.741 1.75-.993 1.109-.289.771-.499-.922-.573-2.046-.089-3.747 1.112-7.25 5.117M421.158 81c0 1.375.227 1.938.504 1.25.278-.687.278-1.812 0-2.5-.277-.687-.504-.125-.504 1.25m41.342-.588c5.178 2.301 7.681 5.922 8.496 12.287.701 5.48.749 5.56.873 1.452.215-7.124-5.667-15.255-10.931-15.112-.791.022-.088.639 1.562 1.373M420.158 86c0 1.375.227 1.938.504 1.25.278-.687.278-1.812 0-2.5-.277-.687-.504-.125-.504 1.25M193 113.109c0 26.646.093 28.064 1.75 26.781 1.667-1.291 1.667-1.257 0 .706-1.166 1.373-1.737 3.704-1.712 6.983l.037 4.921 32.713-33.04c17.991-18.172 30.912-31.033 28.712-28.579-2.2 2.454-16.925 17.547-32.723 33.54L193.054 153.5l-.027 10.75L193 175h67.021l-.261-44.75-.26-44.75-33.25-.263-33.25-.264v28.136m71 17.391V176h-71v6h71v91h6v-91h72v-6h-72V85h-6v45.5m7-.5v45h60.608l3.196-3.298 3.196-3.297V85h-67v45m139.791-42.016c1.81.429 4.172 1.578 5.25 2.553 1.077.975 1.959 1.265 1.959.644 0-1.536-5.366-4.205-8.2-4.079-1.718.077-1.467.3.991.882m-6.124.683c-.367.366-.667 1.116-.667 1.666 0 .55.28.721.622.379.342-.342 2.862.513 5.599 1.9 2.738 1.387 5.157 2.344 5.376 2.125.218-.219-1.835-1.443-4.564-2.721-2.728-1.278-4.725-2.705-4.438-3.17.617-.999-.962-1.146-1.928-.179m48.441.833c-.011.55.605 3.25 1.369 6 .777 2.799 1.418 3.978 1.456 2.677l.067-2.322 2.635 2.072c1.449 1.14 3.362 2.055 4.25 2.034.888-.022.265-.635-1.385-1.364-3.487-1.539-5.988-4.119-7.384-7.618-.544-1.363-.998-2.029-1.008-1.479m-34.361 1.84c-.415 1.012-.5 2.25-.191 2.75.309.501.059.91-.556.91s-.869.403-.565.895c.64 1.035-1.696 2.105-4.594 2.105-1.097 0-3.31-1.315-4.918-2.923S405 92.529 405 92.988c0 2.411 6.334 6.036 10.095 5.779 2.146-.147 3.903-.683 3.904-1.191 0-.509 1.126.132 2.501 1.424 1.96 1.842 2.539 3.444 2.68 7.424l.18 5.076.38-4.882c.322-4.131-.003-5.286-2.108-7.5-1.435-1.51-2.625-4.099-2.81-6.118-.248-2.69-.496-3.074-1.075-1.66m283.946 8.91.53 3.75h-15.538c-13.958 0-15.585-.178-15.996-1.75-.344-1.317-.486-1.193-.573.5-.091 1.761.424 2.25 2.37 2.25h2.486l.279 31.25.279 31.25.235-31.25L677 105h3.259c2.177 0 3.675.665 4.509 2 .844 1.351 2.332 2 4.585 2 2.067 0 4.026-.761 5.147-2 1.448-1.6 3.08-2 8.155-2 5.406 0 6.333-.259 6.266-1.75-.047-1.045-.282-1.247-.583-.5-1.084 2.686-3.982 1.26-5.08-2.5l-1.094-3.75.529 3.75m4.386-.667c.048 1.165.285 1.402.604.605.289-.722.253-1.585-.079-1.917-.332-.332-.568.258-.525 1.312M417.158 102c0 1.375.227 1.938.504 1.25.278-.687.278-1.812 0-2.5-.277-.687-.504-.125-.504 1.25m39 1c0 1.375.227 1.938.504 1.25.278-.687.278-1.812 0-2.5-.277-.687-.504-.125-.504 1.25m-40 4c0 1.375.227 1.938.504 1.25.278-.687.278-1.812 0-2.5-.277-.687-.504-.125-.504 1.25M457 108.5c0 1.375.388 2.5.861 2.5.474 0 .647-1.125.384-2.5s-.651-2.5-.862-2.5c-.21 0-.383 1.125-.383 2.5m-47.84 5.75c-.151 3.536.012 3.75 2.84 3.75 2.715 0 3.002.309 3.016 3.25.046 9.029 9.627 17.021 20.84 17.383l6.644.215-6.53-.736c-8.102-.914-13.809-4.01-17.293-9.384-1.458-2.248-2.494-4.245-2.302-4.436.442-.442 37.473-6.249 40.007-6.273 1.634-.017 1.807.532 1.318 4.179-.366 2.732-.243 3.692.353 2.75.504-.796.923-2.685.932-4.198.012-2.263.458-2.75 2.515-2.75 2.251 0 2.484-.374 2.34-3.75-.158-3.692-.166-3.7-.563-.5l-.404 3.25h-52.746l-.404-3.25c-.397-3.2-.405-3.192-.563.5m-206.698 18-4.962 5.25 5.25-4.962c4.878-4.612 5.709-5.538 4.962-5.538-.158 0-2.52 2.363-5.25 5.25m251.161-1.644c-1.582 1.983-4.732 4.448-7 5.478-2.268 1.03-3.426 1.882-2.573 1.894 2.482.035 9.527-4.992 11.371-8.114 2.278-3.856 1.671-3.606-1.798.742m267.967 7.286c1.699 1.036 4.282 3.397 5.739 5.246 1.457 1.849 2.654 2.857 2.66 2.239.015-1.486-8.588-9.378-10.217-9.373-.699.002.118.851 1.818 1.888M695.158 151c0 1.375.227 1.938.504 1.25.278-.687.278-1.812 0-2.5-.277-.687-.504-.125-.504 1.25m36.037 1.5c.02 1.65.244 2.204.498 1.231.254-.973.237-2.323-.037-3-.274-.677-.481.119-.461 1.769m-23.592 3.908c1.52 3.961 8.115 4.046 11.352.147 1.144-1.38.547-1.555-5.301-1.555-5.258 0-6.482.285-6.051 1.408M335 172.5l-2.349 2.5h2.675c2.186 0 2.674-.457 2.674-2.5 0-1.375-.147-2.5-.326-2.5-.179 0-1.382 1.125-2.674 2.5m351.543 1.431c-.317.512-.118 1.213.441 1.559.559.345 1.016.307 1.016-.086s.97.143 2.155 1.191l2.155 1.905-1.77-2.75c-1.843-2.864-3.02-3.4-3.997-1.819m1.457 3.447c0 .207.788.995 1.75 1.75 1.586 1.243 1.621 1.208.378-.378-1.307-1.666-2.128-2.195-2.128-1.372m-49 3.491c-7.063.594-7.516.777-7.78 3.131-1.261 11.259-.131 10.992-46.547 10.996l-38.827.004-2.923-2.923c-1.608-1.608-2.923-3.909-2.923-5.113 0-2.138-.248-2.181-10.25-1.792-11.129.433-14.468 1.718-16.596 6.389-1.239 2.72-1.688 72.573-.512 79.689l.62 3.75h30.694l.272-18.75.272-18.75 45.75-.26 45.75-.26V301h-47v52h-76l.003 69.75c.002 38.363.301 76.925.665 85.694l.661 15.945 3.262 3.555 3.261 3.556 72.824-.367c81.713-.412 76.049.144 78.206-7.668.502-1.818.573-73.229.166-166.574-.676-155.24-.803-163.583-2.536-167.23-3.833-8.066-11.814-10.365-30.512-8.792m-120.999 1.254c-3.227 1.287-6.819 4.663-8.596 8.077-2.29 4.402-2.065 84.8.238 84.8 1.505 0 1.6-3.375 1.138-40.21-.291-23.23-.114-41.621.419-43.552 1.563-5.659 5.474-7.23 18.019-7.234 9.115-.003 10.632-.228 10.143-1.504-.682-1.776-17.125-2.066-21.361-.377M193 229.5V273H234.529l12.735-12.764L260 247.472V186h-67v43.5m78-18.255v25.245l15.75-16.023c8.663-8.812 19.769-20.172 24.681-25.244l8.931-9.223H271v25.245m25.671.505-25.655 25.75-.008 11.994-.008 11.995L304.5 228l33.5-33.489V186h-15.674l-25.655 25.75M687.158 197c0 1.375.227 1.938.504 1.25.278-.687.278-1.812 0-2.5-.277-.687-.504-.125-.504 1.25m-382.914 35.256c-31.819 31.83-33.244 33.416-33.244 37V273h22.5c20.757 0 22.501-.136 22.514-1.75.007-.962.303-2.875.657-4.25l.643-2.5-2.372 2c-2.259 1.905-2.25 1.851.19-1.144 1.847-2.268 2.737-4.827 3.192-9.18 1.7-16.264 9.587-25.129 17.453-19.619l2.223 1.556v-19.556c0-10.756-.115-19.557-.256-19.557-.14 0-15.215 14.965-33.5 33.256m-56.039 28.378L236.911 272.5l11.177.284c6.148.156 11.357.104 11.578-.116.22-.22.272-5.688.117-12.15l-.283-11.749-11.295 11.865M193 277v3h120.767l.603-2.25c.331-1.238.609-2.587.616-3 .008-.413-27.436-.75-60.986-.75h-61v3m-28 21.43c0 18.318-.014 18.434-2.25 18.864-1.929.372-1.858.453.5.57L166 318v-37h5v37.813l-2.25-.418c-1.248-.231-1.582-.126-.75.236 3.679 1.604 7.327 4.909 8.571 7.765 1.048 2.409 1.359 2.642 1.39 1.041.021-1.135-1.311-3.356-2.961-4.937l-3-2.874V280h-7v18.43m28-11.93v5.5h117.05l1.048-2.75c.576-1.512 1.296-3.988 1.6-5.5l.552-2.75H193v5.5M141 307c-1.282.828-1.246.972.25.985.963.008 1.75-.435 1.75-.985 0-1.22-.113-1.22-2 0m10.56 1.888c5.61 2.548 8.006 7.346 5.655 11.325-1.549 2.623-2.089 2.799-9.181 2.983l-7.534.196 6.75.35c3.713.192 6.75.563 6.75.824 0 .526-23.78 36.418-25.049 37.807-.438.48-1.354-.985-2.034-3.256-.681-2.272-1.455-3.912-1.722-3.646-.266.267.263 2.44 1.176 4.831 1.564 4.095 1.848 4.318 4.895 3.845 2.819-.437 2.946-.575.989-1.074-2.107-.538-1.615-1.522 7.979-15.942l10.225-15.368 1.253 2.868c1.222 2.801 1.238 2.774.694-1.131-.491-3.518-.065-4.701 3.533-9.816l4.092-5.817-1.686-3.551c-1.685-3.553-6.52-7.325-9.345-7.29-.825.01.327.848 2.56 1.862m-17.629 2.335c-3.313 3.313-9.993 16.025-9.852 18.749.043.84.756-.385 1.583-2.722 1.465-4.139 1.626-4.254 6.171-4.4l4.667-.15-4.293-.6-4.293-.6 2.907-4.571c1.599-2.513 4.154-5.551 5.678-6.75 1.524-1.198 2.295-2.179 1.713-2.179-.582 0-2.508 1.45-4.281 3.223m247.546 6.527c.38.962 2.022 5.8 3.649 10.75 1.627 4.95 5.077 14.733 7.666 21.74l4.708 12.74 23.25.01L444 363v-47h-31.607c-29.698 0-31.565.106-30.916 1.75m219.768 103.5.255 103.25 28.75.265 28.75.266V318h-58.009l.254 103.25M602 421v102h55V319h-55v102m-423.842-89c0 1.375.227 1.938.504 1.25.278-.687.278-1.812 0-2.5-.277-.687-.504-.125-.504 1.25m-55.022 2.165c-.133 2.597.029 2.673 6.419 3 3.606.184 7.319.029 8.25-.345.932-.374-1.761-.711-5.985-.75-7.144-.065-7.711-.227-8.114-2.32-.383-1.99-.449-1.942-.57.415m628.114-1.476c.962.252 2.538.252 3.5 0 .962-.251.175-.457-1.75-.457s-2.712.206-1.75.457m-4.021.98c-2.735 1.101-4.229 6.227-4.234 14.531l-.005 8.3-2.559-3-2.559-3 2.564 3.982c2.224 3.454 2.564 5.078 2.564 12.25V375h-13.5c-13.368 0-13.499.022-13.384 2.25.087 1.693.229 1.817.573.5.648-2.477 44.311-2.723 44.311-.25 0 .825-.337 1.502-.75 1.505-.413.003-.772 2.961-.799 6.572-.058 7.832 1.008 5.642 1.864-3.827l.61-6.75h-8.963c-9.198 0-10.674-.755-7.712-3.947 1-1.077 1-1.205 0-.641-.974.55-1.25-2.396-1.25-13.353V343h3.077c3.513 0 8.948-4.694 8.884-7.673-.025-1.163-.54-.675-1.419 1.344-1.552 3.569-4.187 5.329-7.976 5.329-3.305 0-3.297-1.977.023-5.923 1.424-1.692 2.436-3.041 2.25-2.998-.186.043-.911.309-1.61.59m-571.015 4.985c-.616 2.009-.724 3.246-.238 2.75.978-1.002 2.497-6.404 1.8-6.404-.242 0-.945 1.644-1.562 3.654m-23.128.346c-.031.825.381 2.175.914 3 1.181 1.828 1.181.249 0-2.5-.567-1.319-.878-1.489-.914-.5m-26.336 2.068c-2.731 1.442-3.713 2.584-3.614 4.206.129 2.103.159 2.112.547.15.241-1.217 2.148-2.949 4.614-4.188 2.312-1.161 3.753-2.12 3.203-2.13-.55-.01-2.687.873-4.75 1.962m46.709 2.999c-.363.586-.445 1.281-.183 1.543s.743-.218 1.069-1.067c.676-1.762.1-2.072-.886-.476M169 348.378c0 1.307-.675 2.937-1.5 3.622-1.495 1.241-2.4 40-.934 40 4.206 0 4.434-1.236 4.434-24.035 0-13.977-.364-21.965-1-21.965-.55 0-1 1.07-1 2.378m-44.805 3.122c.02 1.65.244 2.204.498 1.231.254-.973.237-2.323-.037-3-.274-.677-.481.119-.461 1.769m19.56 2.124c-.286.482-.809 2.451-1.162 4.376l-.642 3.5 1.364-3c1.35-2.972 1.37-2.978 2.115-.675.414 1.279.943 2.135 1.177 1.902.233-.234-.196-1.899-.954-3.702s-1.612-2.883-1.898-2.401m364.851 82.626c.273 45.788.716 84.699.985 86.471.573 3.774 4.465 8.74 8.478 10.815 3.229 1.669 139.6 2.11 143.431.464 1.142-.491-28.726-.89-69.615-.93-71.057-.069-71.636-.086-74.27-2.158-5.609-4.412-5.36-.671-6.16-92.673-.6-68.973-.99-85.239-2.043-85.239-1.064 0-1.212 15.277-.806 83.25M728 354.878c0 2.168 1.553 3.601 4.75 4.384 2.844.696 3.107-2.176.421-4.607-2.466-2.232-5.171-2.115-5.171.223m-551.75 5.358c-2.338 2.387-4.25 5.217-4.25 6.289 0 1.547.947 1.002 4.6-2.651 2.686-2.687 4.454-5.302 4.25-6.289-.272-1.313-1.296-.723-4.6 2.651M150 359c-2.01.644-2.108.806-.5.83 1.1.016 2.9-.357 4-.83 2.548-1.095-.081-1.095-3.5 0m52 6v6h56l-.189-6.25-.189-6.25-.361 5.75-.361 5.75h-53.766l.183-5.501c.101-3.026-.155-5.501-.567-5.5-.412 0-.75 2.701-.75 6.001m-65-3c-2.06.66-2.148.816-.5.885 1.1.046 2.675-.352 3.5-.885 1.752-1.132.536-1.132-3 0m598.98 4.524c-.696.838-1.071 1.718-.835 1.955.237.236.98-.449 1.651-1.524 1.452-2.325.968-2.58-.816-.431M688.443 397.5c0 16.5.137 23.39.305 15.312.167-8.079.168-21.579 0-30-.167-8.422-.304-1.812-.305 14.688M530 379.5v9.5l17.25.25c20.461.297 36.755.079 37.333-.499.228-.229.708-4.541 1.066-9.583l.65-9.168H530v9.5m187.363 2.191c-1.564 6.229 3.436 16.163 10.585 21.03l3.262 2.221-13.855.31c-7.62.17 1.531.408 20.336.529 33.36.214 38.324.695 34.187 3.315-.906.574-.97.879-.187.889 1.887.024 2.594-1.936 1.273-3.529-.938-1.129-4.041-1.466-13.836-1.5l-12.628-.044 3.67-1.939c2.018-1.066 4.531-3.184 5.586-4.706 3.635-5.249 3.523-5.754-.305-1.381-11.301 12.908-31.348 9.39-36.179-6.35l-1.039-3.387 7.133-1.566c3.924-.862 12.084-2.657 18.134-3.99l11-2.423-18.231-.085-18.231-.085-.675 2.691m-511.864 6.059c3.505 8.607 3.779 10.326 1.864 11.733-1.808 1.328-1.806 1.364.07 1.193 1.678-.153 2.107.93 3.26 8.23.73 4.624 1.176 8.559.99 8.745-.186.186-4.987-3.137-10.669-7.383-9.376-7.008-10.108-7.783-7.922-8.395 2.14-.599 2.045-.685-.852-.773-2.264-.07-5.622-1.803-11-5.678-4.257-3.068-6.391-4.343-4.742-2.835 1.735 1.588 2.921 3.622 2.815 4.828-.135 1.54-.05 1.627.325.335.727-2.502.927-2.4 10.862 5.549 7.963 6.371 8.98 7.547 8.823 10.201l-.177 3 .677-2.786.677-2.786 5.839 4.286 5.838 4.286-3.838 1.173c-5.455 1.667-7.139 1.574-7.632-.423-.237-.962-.331-.738-.208.5.207 2.077-.181 2.25-5.056 2.25-7.155 0-8.368-.63-10.392-5.396l-1.742-4.102-1.683 3.255-1.683 3.254-3.972-2.026-3.971-2.026V448.446l7-6.946 7-6.946v4.035c0 3.607-.745 4.844-7 11.633l-7 7.597v14.138l2.574-1.173c1.927-.878 3.031-.888 4.391-.038 1.549.967 1.743.853 1.317-.774-1.094-4.185 7.722-9.941 13.141-8.581 5.886 1.478 12.577 10.871 12.577 17.657 0 2.053.38 2.835 1.146 2.362.819-.506.934.118.402 2.191-.409 1.594-1.738 7.298-2.953 12.676-1.214 5.377-2.544 9.441-2.955 9.03-.41-.41-.508-.085-.217.723.29.809-1.404 10.582-3.765 21.72L193.364 548h2.235c1.507 0 2.589-.895 3.324-2.75l1.089-2.75-.53 2.769-.53 2.769 22.189-.269 22.189-.269 9.256-27.75c5.165-15.486 8.765-27.75 8.144-27.75-.612 0-.399-.562.473-1.25.872-.687 4.097-8.562 7.167-17.5 5.446-15.854 5.528-16.252 3.356-16.35-2.144-.096-2.137-.124.194-.776 2.042-.571 3.006-2.429 6.174-11.889l3.754-11.213-3.513-1.668c-9.403-4.461-10.441-10.717-6.736-40.604l.589-4.75h-16.021c-14.417 0-16.066.175-16.478 1.75-.435 1.667-.463 1.667-.573 0-.106-1.594-1.641-1.75-17.223-1.75-15.897 0-17.057.124-16.394 1.75m147.584-1.357c.23.216 4.467.66 9.417.986 16.079 1.059 26.161 3.269 33.829 7.414 7.734 4.182 8.452 6.879 7.235 27.207a1413.24 1413.24 0 0 0-.996 19c-.203 4.675-.683 10.59-1.066 13.146-.588 3.914-.407 4.814 1.15 5.719 1.58.918 1.609 1.079.204 1.105-1.024.019-1.651.879-1.662 2.28-.01 1.238-.291 6.525-.625 11.75s-.819 13.55-1.078 18.5c-.901 17.252-1.337 20.787-2.666 21.608-1.845 1.14 2.856 9.78 5.98 10.991 1.268.491 4.37 2.47 6.894 4.397 2.961 2.262 5.69 3.506 7.695 3.51 4.652.008 10.49 1.878 12.671 4.059 3.589 3.589 2.473 4.08-8.519 3.749-5.75-.173-10.07.068-9.601.536.47.467 5.512.917 11.205 1 9.928.144 10.363.242 10.67 2.406l.321 2.257 42.679-.069 42.68-.069-4.5-2.34c-2.475-1.287-5.595-3.513-6.934-4.948-1.461-1.565-2.693-2.191-3.08-1.565-.586.948-13.117-40.484-12.888-42.612.054-.5.88 1.565 1.836 4.59l1.738 5.5.783-7.425c.431-4.084.45-31.196.043-60.25L495.757 386h-34.916l.543 3.25.543 3.25-1.108-3.25c-1.563-4.583-8.198-5.036-7.332-.5l.525 2.75-1.089-2.75-1.09-2.75H402.25c-27.271 0-49.396.177-49.167.393m-122.004 2.19c.048 1.165.285 1.402.604.605.289-.722.253-1.585-.079-1.917-.332-.332-.568.258-.525 1.312m7 3c.048 1.165.285 1.402.604.605.289-.722.253-1.585-.079-1.917-.332-.332-.568.258-.525 1.312m-8 1c.048 1.165.285 1.402.604.605.289-.722.253-1.585-.079-1.917-.332-.332-.568.258-.525 1.312m224.062.417c0 .825.386 2.4.859 3.5.542 1.261.859 1.445.859.5 0-.825-.386-2.4-.859-3.5-.542-1.261-.859-1.445-.859-.5m8 1c0 .825.386 2.4.859 3.5.542 1.261.859 1.445.859.5 0-.825-.386-2.4-.859-3.5-.542-1.261-.859-1.445-.859-.5M156 395.608c0 1.1 1.575 3.526 3.5 5.392 3.036 2.942 3.5 3.127 3.5 1.392 0-1.1-1.575-3.526-3.5-5.392-3.036-2.942-3.5-3.127-3.5-1.392M236.5 397c-.38 1.729-.482 3.351-.227 3.606.255.255.751-.974 1.102-2.731.834-4.168.026-4.976-.875-.875m-7.421-.417c.048 1.165.285 1.402.604.605.289-.722.253-1.585-.079-1.917-.332-.332-.568.258-.525 1.312M530 421v23h56v-46h-56v23m-301.921-20.417c.048 1.165.285 1.402.604.605.289-.722.253-1.585-.079-1.917-.332-.332-.568.258-.525 1.312M456.152 400c0 .825.607 3.075 1.348 5 .741 1.925 1.348 2.825 1.348 2 0-.825-.607-3.075-1.348-5-.741-1.925-1.348-2.825-1.348-2m-278.073 1.583c.048 1.165.285 1.402.604.605.289-.722.253-1.585-.079-1.917-.332-.332-.568.258-.525 1.312m18.564-.815c-.261.423 1.287.601 3.441.395 2.154-.205 3.916-.551 3.916-.768 0-.745-6.882-.396-7.357.373m267.509.232c0 .825.607 3.075 1.348 5 .741 1.925 1.348 2.825 1.348 2 0-.825-.607-3.075-1.348-5-.741-1.925-1.348-2.825-1.348-2m-230.564 7.588c-.92 3.663-1.487 6.846-1.261 7.072.226.227 1.165-2.585 2.085-6.248.92-3.663 1.487-6.846 1.261-7.072-.226-.227-1.165 2.585-2.085 6.248m-6.509-4.005c.048 1.165.285 1.402.604.605.289-.722.253-1.585-.079-1.917-.332-.332-.568.258-.525 1.312m-50 1c.048 1.165.285 1.402.604.605.289-.722.253-1.585-.079-1.917-.332-.332-.568.258-.525 1.312m49 3c.048 1.165.285 1.402.604.605.289-.722.253-1.585-.079-1.917-.332-.332-.568.258-.525 1.312m-50 1c.048 1.165.285 1.402.604.605.289-.722.253-1.585-.079-1.917-.332-.332-.568.258-.525 1.312m283.062.417c0 .825.386 2.4.859 3.5.542 1.261.859 1.445.859.5 0-.825-.386-2.4-.859-3.5-.542-1.261-.859-1.445-.859-.5m243.938.583c.048 1.165.285 1.402.604.605.289-.722.253-1.585-.079-1.917-.332-.332-.568.258-.525 1.312m18 0c.048 1.165.285 1.402.604.605.289-.722.253-1.585-.079-1.917-.332-.332-.568.258-.525 1.312M467.141 411c0 .825.386 2.4.859 3.5.542 1.261.859 1.445.859.5 0-.825-.386-2.4-.859-3.5-.542-1.261-.859-1.445-.859-.5m-244.548 10.593c-1.47 5.864-2.489 10.845-2.265 11.069.224.224 1.61-4.391 3.079-10.255 1.47-5.864 2.489-10.845 2.265-11.069-.224-.224-1.61 4.391-3.079 10.255M754.158 413c0 1.375.227 1.938.504 1.25.278-.687.278-1.812 0-2.5-.277-.687-.504-.125-.504 1.25m18 0c0 1.375.227 1.938.504 1.25.278-.687.278-1.812 0-2.5-.277-.687-.504-.125-.504 1.25M166 413.612c0 .912 1.125 2.701 2.5 3.976l2.5 2.317v-2.338c0-1.389-1.014-3.001-2.5-3.975-2.32-1.52-2.5-1.519-2.5.02m9.079-.029c.048 1.165.285 1.402.604.605.289-.722.253-1.585-.079-1.917-.332-.332-.568.258-.525 1.312M702.232 417c0 1.925.206 2.712.457 1.75.252-.962.252-2.538 0-3.5-.251-.962-.457-.175-.457 1.75m18 0c0 1.925.206 2.712.457 1.75.252-.962.252-2.538 0-3.5-.251-.962-.457-.175-.457 1.75m-259.091 0c0 .825.386 2.4.859 3.5.542 1.261.859 1.445.859.5 0-.825-.386-2.4-.859-3.5-.542-1.261-.859-1.445-.859-.5m294.017 1c0 1.375.227 1.938.504 1.25.278-.687.278-1.812 0-2.5-.277-.687-.504-.125-.504 1.25m18 0c0 1.375.227 1.938.504 1.25.278-.687.278-1.812 0-2.5-.277-.687-.504-.125-.504 1.25m-616.534.539c-.965 2.514-.681 3.163.498 1.136.584-1.004.851-2.036.593-2.293-.257-.258-.749.263-1.091 1.157m74.001 1.586c-.834 4.168-.026 4.976.875.875.38-1.729.482-3.351.227-3.606-.255-.255-.751.974-1.102 2.731M469.141 418c0 .825.386 2.4.859 3.5.542 1.261.859 1.445.859.5 0-.825-.386-2.4-.859-3.5-.542-1.261-.859-1.445-.859-.5M369 423.581c-3.025 1.297-6.4 2.442-7.5 2.545-1.1.104.25.455 3 .781 4.509.535 5 .839 5 3.093 0 2.395-.309 2.521-7.362 3l-7.362.5 4.204 8c9.521 18.114 16.526 30.5 17.25 30.5.424 0 .77-1.125.77-2.5 0-1.708-.554-2.505-1.75-2.515-1.19-.011-1.366-.26-.549-.779.862-.548 1.068-3.725.727-11.235-.261-5.759-.643-14.378-.85-19.154-.207-4.775-.668-9.153-1.024-9.729-.355-.576-.16-1.956.435-3.067.595-1.112.953-1.971.796-1.909-.157.061-2.76 1.172-5.785 2.469m332.232.419c0 1.925.206 2.712.457 1.75.252-.962.252-2.538 0-3.5-.251-.962-.457-.175-.457 1.75m18 0c0 1.925.206 2.712.457 1.75.252-.962.252-2.538 0-3.5-.251-.962-.457-.175-.457 1.75m-563.668-.707c.376.986.935 1.541 1.243 1.233.308-.307.001-1.114-.683-1.793-.988-.98-1.102-.865-.56.56m600.594.707c0 1.375.227 1.938.504 1.25.278-.687.278-1.812 0-2.5-.277-.687-.504-.125-.504 1.25m18 0c0 1.375.227 1.938.504 1.25.278-.687.278-1.812 0-2.5-.277-.687-.504-.125-.504 1.25m-311.017 0c0 .825.386 2.4.859 3.5.542 1.261.859 1.445.859.5 0-.825-.386-2.4-.859-3.5-.542-1.261-.859-1.445-.859-.5m7.943.5c-.031.55.826 3.7 1.905 7 1.078 3.3 1.69 4.441 1.359 2.536-.658-3.795-3.173-11.14-3.264-9.536m-242.005 2.083c.048 1.165.285 1.402.604.605.289-.722.253-1.585-.079-1.917-.332-.332-.568.258-.525 1.312M757.158 429c0 1.375.227 1.938.504 1.25.278-.687.278-1.812 0-2.5-.277-.687-.504-.125-.504 1.25m18 0c0 1.375.227 1.938.504 1.25.278-.687.278-1.812 0-2.5-.277-.687-.504-.125-.504 1.25m-636.345.683c.721.289 1.584.253 1.916-.079.332-.332-.258-.568-1.312-.525-1.165.048-1.402.285-.604.604m89.266.9c.048 1.165.285 1.402.604.605.289-.722.253-1.585-.079-1.917-.332-.332-.568.258-.525 1.312m237.026-.083c-.052.55.984 4.375 2.302 8.5 1.317 4.125 2.437 7.05 2.488 6.5.052-.55-.984-4.375-2.302-8.5-1.317-4.125-2.437-7.05-2.488-6.5m-294.876 1.25c-.126.688-.848 1.25-1.604 1.25-.756 0-1.656 1.406-2 3.125-.912 4.56-.572 48.012.346 44.15.421-1.774 1.509-4.359 2.418-5.746 1.427-2.179 1.612-5.337 1.36-23.275-.161-11.415-.395-20.191-.52-19.504m56.85 2.833c.048 1.165.285 1.402.604.605.289-.722.253-1.585-.079-1.917-.332-.332-.568.258-.525 1.312m56.393-.333c-1.939 5.216-7.409 22.146-7.214 22.334.133.13 1.817.715 3.742 1.301l3.5 1.065-4-.516-4-.516-5.267 15.291c-5.987 17.384-5.806 16.495-3.483 17.102 1.367.357 1.276.482-.415.573-1.926.103-3.209 3.25-11.67 28.616l-9.507 28.5h29.407l7.543-30.96c6.442-26.445 7.313-31.022 5.967-31.384-1.325-.357-1.305-.442.128-.54 1.811-.123 2.576-2.241 5.406-14.96 1.384-6.224 1.426-7.519.267-8.254-1.109-.703-1.061-.874.25-.887 1.253-.011 2.428-3.219 5.131-14.015l3.505-14h-9.412c-6.616 0-9.551.371-9.878 1.25m17.775 12.463c-3.815 16.166-3.705 15.021-1.497 15.598 1.39.363 1.313.481-.377.573-1.82.099-2.44 1.38-4.293 8.866-1.19 4.813-2.416 9.585-2.723 10.605-.501 1.663-.109 1.796 3.792 1.283l4.351-.571-4.372 1.233-4.372 1.233-7.337 29.484c-4.036 16.215-7.356 30.271-7.378 31.233-.038 1.64 2.658 1.75 42.959 1.75 31.247 0 43-.308 43-1.128 0-1.031-17.092-59.132-20.61-70.06-.856-2.659-2.241-4.881-3.2-5.134-1.462-.386-1.473-.462-.08-.562 3.701-.267-1.72-12.833-11.086-25.702l-8.671-11.914-7.427-.287-7.426-.287-3.253 13.787m-82.168-11.13c.048 1.165.285 1.402.604.605.289-.722.253-1.585-.079-1.917-.332-.332-.568.258-.525 1.312m-71.455 1.956c-.965 2.514-.681 3.163.498 1.136.584-1.004.851-2.036.593-2.293-.257-.258-.749.263-1.091 1.157m30.597 5.738c-5.188 5.234-6.221 6.844-6.221 9.691v3.414l6.482-6.941c4.689-5.021 6.486-7.702 6.5-9.691.023-3.53.458-3.756-6.761 3.527m47.858-4.694c.048 1.165.285 1.402.604.605.289-.722.253-1.585-.079-1.917-.332-.332-.568.258-.525 1.312m-8 1c.048 1.165.285 1.402.604.605.289-.722.253-1.585-.079-1.917-.332-.332-.568.258-.525 1.312m541.079.417c0 1.375.227 1.938.504 1.25.278-.687.278-1.812 0-2.5-.277-.687-.504-.125-.504 1.25m18 0c0 1.375.227 1.938.504 1.25.278-.687.278-1.812 0-2.5-.277-.687-.504-.125-.504 1.25m-552.079 2.583c.048 1.165.285 1.402.604.605.289-.722.253-1.585-.079-1.917-.332-.332-.568.258-.525 1.312m251 0c.048 1.165.285 1.402.604.605.289-.722.253-1.585-.079-1.917-.332-.332-.568.258-.525 1.312m-259 1c.048 1.165.285 1.402.604.605.289-.722.253-1.585-.079-1.917-.332-.332-.568.258-.525 1.312m499.116 1.917c.02 1.65.244 2.204.498 1.231.254-.973.237-2.323-.037-3-.274-.677-.481.119-.461 1.769m44 0c.02 1.65.244 2.204.498 1.231.254-.973.237-2.323-.037-3-.274-.677-.481.119-.461 1.769m17.963-.5c0 1.375.227 1.938.504 1.25.278-.687.278-1.812 0-2.5-.277-.687-.504-.125-.504 1.25m-554.697 3.18c-.358 1.63-.383 3.231-.056 3.558.327.328.595-.394.595-1.604 0-1.345.845-2.511 2.176-3.003l2.177-.806-2.121-.554c-1.725-.451-2.242-.002-2.771 2.409m-7.382-.597c.048 1.165.285 1.402.604.605.289-.722.253-1.585-.079-1.917-.332-.332-.568.258-.525 1.312m248.671-.921c.688.278 1.813.278 2.5 0 .688-.277.125-.504-1.25-.504s-1.937.227-1.25.504m-235 1c.688.278 1.813.278 2.5 0 .688-.277.125-.504-1.25-.504s-1.937.227-1.25.504m231.063.021c.721.289 1.584.253 1.916-.079.332-.332-.258-.568-1.312-.525-1.165.048-1.402.285-.604.604m9.328.317c0 .825.386 2.4.859 3.5.542 1.261.859 1.445.859.5 0-.825-.386-2.4-.859-3.5-.542-1.261-.859-1.445-.859-.5m-235.328.683c.721.289 1.584.253 1.916-.079.332-.332-.258-.568-1.312-.525-1.165.048-1.402.285-.604.604m220.937-.021c.688.278 1.813.278 2.5 0 .688-.277.125-.504-1.25-.504s-1.937.227-1.25.504m22.391.338c0 .825.386 2.4.859 3.5.542 1.261.859 1.445.859.5 0-.825-.386-2.4-.859-3.5-.542-1.261-.859-1.445-.859-.5m-239.391.662c.688.278 1.813.278 2.5 0 .688-.277.125-.504-1.25-.504s-1.937.227-1.25.504m213.063.021c.721.289 1.584.253 1.916-.079.332-.332-.258-.568-1.312-.525-1.165.048-1.402.285-.604.604M715.232 452c0 1.925.206 2.712.457 1.75.252-.962.252-2.538 0-3.5-.251-.962-.457-.175-.457 1.75m45.926-1c0 1.375.227 1.938.504 1.25.278-.687.278-1.812 0-2.5-.277-.687-.504-.125-.504 1.25m18 0c0 1.375.227 1.938.504 1.25.278-.687.278-1.812 0-2.5-.277-.687-.504-.125-.504 1.25m-564.079.583c.048 1.165.285 1.402.604.605.289-.722.253-1.585-.079-1.917-.332-.332-.568.258-.525 1.312M245 451c1.375.44 3.4.801 4.5.801 1.584 0 1.48-.167-.5-.801-1.375-.44-3.4-.801-4.5-.801-1.584 0-1.48.167.5.801m201.75-.338c.688.278 1.813.278 2.5 0 .688-.277.125-.504-1.25-.504s-1.937.227-1.25.504m-3.937 1.021c.721.289 1.584.253 1.916-.079.332-.332-.258-.568-1.312-.525-1.165.048-1.402.285-.604.604m-190.063.979c.688.278 1.813.278 2.5 0 .688-.277.125-.504-1.25-.504s-1.937.227-1.25.504m185.063.021c.721.289 1.584.253 1.916-.079.332-.332-.258-.568-1.312-.525-1.165.048-1.402.285-.604.604M530 461.5v9.5h56v-19h-56v9.5m-309.412-1.912c-.92 3.663-1.487 6.846-1.261 7.072.226.227 1.165-2.585 2.085-6.248.92-3.663 1.487-6.846 1.261-7.072-.226-.227-1.165 2.585-2.085 6.248m37.225-5.905c.721.289 1.584.253 1.916-.079.332-.332-.258-.568-1.312-.525-1.165.048-1.402.285-.604.604m174.937-.021c.688.278 1.813.278 2.5 0 .688-.277.125-.504-1.25-.504s-1.937.227-1.25.504m-218.671 1.921c.048 1.165.285 1.402.604.605.289-.722.253-1.585-.079-1.917-.332-.332-.568.258-.525 1.312m47.671-.921c.688.278 1.813.278 2.5 0 .688-.277.125-.504-1.25-.504s-1.937.227-1.25.504m167.063.021c.721.289 1.584.253 1.916-.079.332-.332-.258-.568-1.312-.525-1.165.048-1.402.285-.604.604m43.408.817c2.502 9.699 5.175 18.437 5.531 18.082.497-.498-4.638-18.824-5.487-19.582-.308-.275-.328.4-.044 1.5m289.937.5c0 1.375.227 1.938.504 1.25.278-.687.278-1.812 0-2.5-.277-.687-.504-.125-.504 1.25m18 0c0 1.375.227 1.938.504 1.25.278-.687.278-1.812 0-2.5-.277-.687-.504-.125-.504 1.25m-513.345-.317c.721.289 1.584.253 1.916-.079.332-.332-.258-.568-1.312-.525-1.165.048-1.402.285-.604.604m156.937-.021c.688.278 1.813.278 2.5 0 .688-.277.125-.504-1.25-.504s-1.937.227-1.25.504m56.355-.162c-.052.55.984 4.375 2.302 8.5 1.317 4.125 2.437 7.05 2.488 6.5.052-.55-.984-4.375-2.302-8.5-1.317-4.125-2.437-7.05-2.488-6.5m-60.292 1.183c.721.289 1.584.253 1.916-.079.332-.332-.258-.568-1.312-.525-1.165.048-1.402.285-.604.604m-5.063.979c.688.278 1.813.278 2.5 0 .688-.277.125-.504-1.25-.504s-1.937.227-1.25.504m-203.162 6.926c-.92 3.663-1.487 6.846-1.261 7.072.226.227 1.165-2.585 2.085-6.248.92-3.663 1.487-6.846 1.261-7.072-.226-.227-1.165 2.585-2.085 6.248m199.225-5.905c.721.289 1.584.253 1.916-.079.332-.332-.258-.568-1.312-.525-1.165.048-1.402.285-.604.604M286 460c1.375.44 3.4.801 4.5.801 1.584 0 1.48-.167-.5-.801-1.375-.44-3.4-.801-4.5-.801-1.584 0-1.48.167.5.801m119.75-.338c.688.278 1.813.278 2.5 0 .688-.277.125-.504-1.25-.504s-1.937.227-1.25.504m-103 4c.688.278 1.813.278 2.5 0 .688-.277.125-.504-1.25-.504s-1.937.227-1.25.504m38.691 3.505c.825 2.794 2.026 4.492 3.645 5.153 2.102.857 2.176 1.041.571 1.424-2.224.529-3.231-3.633 9.549 39.499l10.294 34.743 6.162.007 6.162.007.66-4.25c2.118-13.631 2.864-16.946 3.906-17.346 2.018-.775.626-8.653-1.952-11.046-1.548-1.437-2.126-2.835-1.756-4.25.303-1.159.082-2.108-.492-2.108s-1.189.672-1.367 1.493c-.178.821-8.345-9.529-18.149-23S340.705 463 340.53 463c-.176 0 .235 1.875.911 4.167m-33.628-2.484c.721.289 1.584.253 1.916-.079.332-.332-.258-.568-1.312-.525-1.165.048-1.402.285-.604.604m405.382 1.817c.02 1.65.244 2.204.498 1.231.254-.973.237-2.323-.037-3-.274-.677-.481.119-.461 1.769m-401.445-.838c.688.278 1.813.278 2.5 0 .688-.277.125-.504-1.25-.504s-1.937.227-1.25.504M701 484c0 15.013.268 18.963 1.25 18.395 5.24-3.031 6.759-4.729 6.9-7.713.14-2.971.177-3.002.563-.469l.413 2.713 9.413-6.213c5.178-3.417 9.407-6.438 9.4-6.713-.008-.275-3.479-2.862-7.714-5.749-6.697-4.567-7.789-5.022-8.392-3.5-.583 1.472-.704 1.4-.763-.453-.062-1.936-3.574-5.043-9.82-8.687-.982-.573-1.25 3.372-1.25 18.389m81.158-17c0 1.375.227 1.938.504 1.25.278-.687.278-1.812 0-2.5-.277-.687-.504-.125-.504 1.25m-465.345-.317c.721.289 1.584.253 1.916-.079.332-.332-.258-.568-1.312-.525-1.165.048-1.402.285-.604.604m3.937.979c.688.278 1.813.278 2.5 0 .688-.277.125-.504-1.25-.504s-1.937.227-1.25.504m-103.125 3.463c-.834 4.168-.026 4.976.875.875.38-1.729.482-3.351.227-3.606-.255-.255-.751.974-1.102 2.731m108.188-2.442c.721.289 1.584.253 1.916-.079.332-.332-.258-.568-1.312-.525-1.165.048-1.402.285-.604.604m3.937.979c.688.278 1.813.278 2.5 0 .688-.277.125-.504-1.25-.504s-1.937.227-1.25.504m5.063 1.021c.721.289 1.584.253 1.916-.079.332-.332-.258-.568-1.312-.525-1.165.048-1.402.285-.604.604m448.382 1.817c.02 1.65.244 2.204.498 1.231.254-.973.237-2.323-.037-3-.274-.677-.481.119-.461 1.769m-298.116 1.083c.048 1.165.285 1.402.604.605.289-.722.253-1.585-.079-1.917-.332-.332-.568.258-.525 1.312m-303.067 1.44c1.261 2.355 1.655 2.479 1.655.52 0-.801-.611-1.691-1.357-1.977-1.064-.409-1.128-.095-.298 1.457m27.067-.44c.048 1.165.285 1.402.604.605.289-.722.253-1.585-.079-1.917-.332-.332-.568.258-.525 1.312m128.671.079c.688.278 1.813.278 2.5 0 .688-.277.125-.504-1.25-.504s-1.937.227-1.25.504m-147.937 1.021c.721.289 1.584.253 1.916-.079.332-.332-.258-.568-1.312-.525-1.165.048-1.402.285-.604.604m144 0c.721.289 1.584.253 1.916-.079.332-.332-.258-.568-1.312-.525-1.165.048-1.402.285-.604.604m-136 1c.721.289 1.584.253 1.916-.079.332-.332-.258-.568-1.312-.525-1.165.048-1.402.285-.604.604m18.266.9c.048 1.165.285 1.402.604.605.289-.722.253-1.585-.079-1.917-.332-.332-.568.258-.525 1.312m112.671-.921c.688.278 1.813.278 2.5 0 .688-.277.125-.504-1.25-.504s-1.937.227-1.25.504M766.158 478c0 1.375.227 1.938.504 1.25.278-.687.278-1.812 0-2.5-.277-.687-.504-.125-.504 1.25m18 0c0 1.375.227 1.938.504 1.25.278-.687.278-1.812 0-2.5-.277-.687-.504-.125-.504 1.25m-576.079.583c.048 1.165.285 1.402.604.605.289-.722.253-1.585-.079-1.917-.332-.332-.568.258-.525 1.312m116.734-.9c.721.289 1.584.253 1.916-.079.332-.332-.258-.568-1.312-.525-1.165.048-1.402.285-.604.604m-5.063.979c.688.278 1.813.278 2.5 0 .688-.277.125-.504-1.25-.504s-1.937.227-1.25.504m159.391.338c0 .825.386 2.4.859 3.5.542 1.261.859 1.445.859.5 0-.825-.386-2.4-.859-3.5-.542-1.261-.859-1.445-.859-.5m232.054 1.5c.02 1.65.244 2.204.498 1.231.254-.973.237-2.323-.037-3-.274-.677-.481.119-.461 1.769m-395.382-.817c.721.289 1.584.253 1.916-.079.332-.332-.258-.568-1.312-.525-1.165.048-1.402.285-.604.604m171.328.317c0 .825.386 2.4.859 3.5.542 1.261.859 1.445.859.5 0-.825-.386-2.4-.859-3.5-.542-1.261-.859-1.445-.859-.5M530 488.5v9.5h55v-19h-55v9.5m204.75-7.176c-3.486 2.854-3.459 3.074.693 5.641l3.443 2.128 3.545-2.297c4.373-2.833 4.383-3.13.201-5.714-4.146-2.563-4.469-2.553-7.882.242m-519.671.259c.048 1.165.285 1.402.604.605.289-.722.253-1.585-.079-1.917-.332-.332-.568.258-.525 1.312m95.671-.921c.688.278 1.813.278 2.5 0 .688-.277.125-.504-1.25-.504s-1.937.227-1.25.504M185 482.059c0 .582.45.781 1 .441s1-.816 1-1.059-.45-.441-1-.441-1 .477-1 1.059m121.813-.376c.721.289 1.584.253 1.916-.079.332-.332-.258-.568-1.312-.525-1.165.048-1.402.285-.604.604M785.158 483c0 1.375.227 1.938.504 1.25.278-.687.278-1.812 0-2.5-.277-.687-.504-.125-.504 1.25m-483.345-.317c.721.289 1.584.253 1.916-.079.332-.332-.258-.568-1.312-.525-1.165.048-1.402.285-.604.604M767.158 484c0 1.375.227 1.938.504 1.25.278-.687.278-1.812 0-2.5-.277-.687-.504-.125-.504 1.25m-553.079 1.583c.048 1.165.285 1.402.604.605.289-.722.253-1.585-.079-1.917-.332-.332-.568.258-.525 1.312M377.158 487c0 1.375.227 1.938.504 1.25.278-.687.278-1.812 0-2.5-.277-.687-.504-.125-.504 1.25m25.655-1.317c.721.289 1.584.253 1.916-.079.332-.332-.258-.568-1.312-.525-1.165.048-1.402.285-.604.604m78.328.317c0 .825.386 2.4.859 3.5.542 1.261.859 1.445.859.5 0-.825-.386-2.4-.859-3.5-.542-1.261-.859-1.445-.859-.5m229.054 1.5c.02 1.65.244 2.204.498 1.231.254-.973.237-2.323-.037-3-.274-.677-.481.119-.461 1.769m-426.382-.817c.721.289 1.584.253 1.916-.079.332-.332-.258-.568-1.312-.525-1.165.048-1.402.285-.604.604m122.937-.021c.688.278 1.813.278 2.5 0 .688-.277.125-.504-1.25-.504s-1.937.227-1.25.504m82.391.338c0 .825.386 2.4.859 3.5.542 1.261.859 1.445.859.5 0-.825-.386-2.4-.859-3.5-.542-1.261-.859-1.445-.859-.5m-210.391.662c.688.278 1.813.278 2.5 0 .688-.277.125-.504-1.25-.504s-1.937.227-1.25.504m133.063.021c.721.289 1.584.253 1.916-.079.332-.332-.258-.568-1.312-.525-1.165.048-1.402.285-.604.604M768.158 489c0 1.375.227 1.938.504 1.25.278-.687.278-1.812 0-2.5-.277-.687-.504-.125-.504 1.25m18 0c0 1.375.227 1.938.504 1.25.278-.687.278-1.812 0-2.5-.277-.687-.504-.125-.504 1.25m-573.079.583c.048 1.165.285 1.402.604.605.289-.722.253-1.585-.079-1.917-.332-.332-.568.258-.525 1.312m61.734-.9c.721.289 1.584.253 1.916-.079.332-.332-.258-.568-1.312-.525-1.165.048-1.402.285-.604.604m140.937-.021c.688.278 1.813.278 2.5 0 .688-.277.125-.504-1.25-.504s-1.937.227-1.25.504m-146 1c.688.278 1.813.278 2.5 0 .688-.277.125-.504-1.25-.504s-1.937.227-1.25.504m151.063.021c.721.289 1.584.253 1.916-.079.332-.332-.258-.568-1.312-.525-1.165.048-1.402.285-.604.604m3.937.979c.688.278 1.813.278 2.5 0 .688-.277.125-.504-1.25-.504s-1.937.227-1.25.504m5.063 1.021c.721.289 1.584.253 1.916-.079.332-.332-.258-.568-1.312-.525-1.165.048-1.402.285-.604.604m-218.685 4.722c-1.542 6.124-1.457 6.612 1.122 6.479 1.693-.087 1.817-.229.5-.573-2.051-.536-2.064-.642-.672-5.655.587-2.114.868-4.044.623-4.288-.244-.245-.952 1.572-1.573 4.037M253 493c-1.98.634-2.084.801-.5.801 1.1 0 3.125-.361 4.5-.801 1.98-.634 2.084-.801.5-.801-1.1 0-3.125.361-4.5.801m181.813-.317c.721.289 1.584.253 1.916-.079.332-.332-.258-.568-1.312-.525-1.165.048-1.402.285-.604.604m334.382 1.817c.02 1.65.244 2.204.498 1.231.254-.973.237-2.323-.037-3-.274-.677-.481.119-.461 1.769m17.963-.5c0 1.375.227 1.938.504 1.25.278-.687.278-1.812 0-2.5-.277-.687-.504-.125-.504 1.25m-348.408-.338c.688.278 1.813.278 2.5 0 .688-.277.125-.504-1.25-.504s-1.937.227-1.25.504M244 495c-1.98.634-2.084.801-.5.801 1.1 0 3.125-.361 4.5-.801 1.98-.634 2.084-.801.5-.801-1.1 0-3.125.361-4.5.801m199.813-.317c.721.289 1.584.253 1.916-.079.332-.332-.258-.568-1.312-.525-1.165.048-1.402.285-.604.604m3.937.979c.688.278 1.813.278 2.5 0 .688-.277.125-.504-1.25-.504s-1.937.227-1.25.504m36.329.921c.048 1.165.285 1.402.604.605.289-.722.253-1.585-.079-1.917-.332-.332-.568.258-.525 1.312M235 497c-1.98.634-2.084.801-.5.801 1.1 0 3.125-.361 4.5-.801 1.98-.634 2.084-.801.5-.801-1.1 0-3.125.361-4.5.801m217.813-.317c.721.289 1.584.253 1.916-.079.332-.332-.258-.568-1.312-.525-1.165.048-1.402.285-.604.604m3.937.979c.688.278 1.813.278 2.5 0 .688-.277.125-.504-1.25-.504s-1.937.227-1.25.504m-228 1c.688.278 1.813.278 2.5 0 .688-.277.125-.504-1.25-.504s-1.937.227-1.25.504m233.063.021c.721.289 1.584.253 1.916-.079.332-.332-.258-.568-1.312-.525-1.165.048-1.402.285-.604.604M788.158 500c0 1.375.227 1.938.504 1.25.278-.687.278-1.812 0-2.5-.277-.687-.504-.125-.504 1.25m-563.345-.317c.721.289 1.584.253 1.916-.079.332-.332-.258-.568-1.312-.525-1.165.048-1.402.285-.604.604m240.937-.021c.688.278 1.813.278 2.5 0 .688-.277.125-.504-1.25-.504s-1.937.227-1.25.504m19.391.338c0 .825.386 2.4.859 3.5.542 1.261.859 1.445.859.5 0-.825-.386-2.4-.859-3.5-.542-1.261-.859-1.445-.859-.5m-265.391.662c.688.278 1.813.278 2.5 0 .688-.277.125-.504-1.25-.504s-1.937.227-1.25.504m251.063.021c.721.289 1.584.253 1.916-.079.332-.332-.258-.568-1.312-.525-1.165.048-1.402.285-.604.604m-255 1c.721.289 1.584.253 1.916-.079.332-.332-.258-.568-1.312-.525-1.165.048-1.402.285-.604.604m258.937-.021c.688.278 1.813.278 2.5 0 .688-.277.125-.504-1.25-.504s-1.937.227-1.25.504m5.063 1.021c.721.289 1.584.253 1.916-.079.332-.332-.258-.568-1.312-.525-1.165.048-1.402.285-.604.604M378.158 505c0 1.375.227 1.938.504 1.25.278-.687.278-1.812 0-2.5-.277-.687-.504-.125-.504 1.25m393 0c0 1.375.227 1.938.504 1.25.278-.687.278-1.812 0-2.5-.277-.687-.504-.125-.504 1.25m18 0c0 1.375.227 1.938.504 1.25.278-.687.278-1.812 0-2.5-.277-.687-.504-.125-.504 1.25m-582.067 7.591c-1.195 4.763-1.988 8.845-1.763 9.07.225.225 1.386-3.488 2.581-8.252 1.195-4.763 1.988-8.845 1.763-9.07-.225-.225-1.386 3.488-2.581 8.252M530 515.016v10.016l27.75-.266 27.75-.266.286-9.75.286-9.75H530v10.016M488.141 510c0 .825.386 2.4.859 3.5.542 1.261.859 1.445.859.5 0-.825-.386-2.4-.859-3.5-.542-1.261-.859-1.445-.859-.5m218.091 6c0 1.925.206 2.712.457 1.75.252-.962.252-2.538 0-3.5-.251-.962-.457-.175-.457 1.75m84.926 0c0 1.375.227 1.938.504 1.25.278-.687.278-1.812 0-2.5-.277-.687-.504-.125-.504 1.25m-301.017 1c0 .825.386 2.4.859 3.5.542 1.261.859 1.445.859.5 0-.825-.386-2.4-.859-3.5-.542-1.261-.859-1.445-.859-.5m-103.328.683c.721.289 1.584.253 1.916-.079.332-.332-.258-.568-1.312-.525-1.165.048-1.402.285-.604.604m405.382 3.817c.02 1.65.244 2.204.498 1.231.254-.973.237-2.323-.037-3-.274-.677-.481.119-.461 1.769m-86.963 1.5c0 1.925.206 2.712.457 1.75.252-.962.252-2.538 0-3.5-.251-.962-.457-.175-.457 1.75m68.926-1c0 1.375.227 1.938.504 1.25.278-.687.278-1.812 0-2.5-.277-.687-.504-.125-.504 1.25m-570.079 2.583c.048 1.165.285 1.402.604.605.289-.722.253-1.585-.079-1.917-.332-.332-.568.258-.525 1.312M775.158 527c0 1.375.227 1.938.504 1.25.278-.687.278-1.812 0-2.5-.277-.687-.504-.125-.504 1.25m18 0c0 1.375.227 1.938.504 1.25.278-.687.278-1.812 0-2.5-.277-.687-.504-.125-.504 1.25m-300.017 0c0 .825.386 2.4.859 3.5.542 1.261.859 1.445.859.5 0-.825-.386-2.4-.859-3.5-.542-1.261-.859-1.445-.859-.5m-290.062 1.583c.048 1.165.285 1.402.604.605.289-.722.253-1.585-.079-1.917-.332-.332-.568.258-.525 1.312m501.116 1.917c.02 1.65.244 2.204.498 1.231.254-.973.237-2.323-.037-3-.274-.677-.481.119-.461 1.769m72 2c.02 1.65.244 2.204.498 1.231.254-.973.237-2.323-.037-3-.274-.677-.481.119-.461 1.769m17.963-.5c0 1.375.227 1.938.504 1.25.278-.687.278-1.812 0-2.5-.277-.687-.504-.125-.504 1.25m-592.079.583c.048 1.165.285 1.402.604.605.289-.722.253-1.585-.079-1.917-.332-.332-.568.258-.525 1.312m293 2c.048 1.165.285 1.402.604.605.289-.722.253-1.585-.079-1.917-.332-.332-.568.258-.525 1.312m-96.329.079c.688.278 1.813.278 2.5 0 .688-.277.125-.504-1.25-.504s-1.937.227-1.25.504M703.232 537c0 1.925.206 2.712.457 1.75.252-.962.252-2.538 0-3.5-.251-.962-.457-.175-.457 1.75m-502.153-.417c.048 1.165.285 1.402.604.605.289-.722.253-1.585-.079-1.917-.332-.332-.568.258-.525 1.312m479.793.167c-1.243 1.586-1.208 1.621.378.378 1.666-1.307 2.195-2.128 1.372-2.128-.207 0-.995.788-1.75 1.75M408.5 538c.995 1.1 2.035 2 2.31 2 .275 0-.315-.9-1.31-2-.995-1.1-2.035-2-2.31-2-.275 0 .315.9 1.31 2m368.658 0c0 1.375.227 1.938.504 1.25.278-.687.278-1.812 0-2.5-.277-.687-.504-.125-.504 1.25m18 0c0 1.375.227 1.938.504 1.25.278-.687.278-1.812 0-2.5-.277-.687-.504-.125-.504 1.25m-595.079 2.583c.048 1.165.285 1.402.604.605.289-.722.253-1.585-.079-1.917-.332-.332-.568.258-.525 1.312m297.062.417c0 .825.386 2.4.859 3.5.542 1.261.859 1.445.859.5 0-.825-.386-2.4-.859-3.5-.542-1.261-.859-1.445-.859-.5m178.731.75c-1.243 1.586-1.208 1.621.378.378 1.666-1.307 2.195-2.128 1.372-2.128-.207 0-.995.788-1.75 1.75m-170.731.25c0 .825.386 2.4.859 3.5.542 1.261.859 1.445.859.5 0-.825-.386-2.4-.859-3.5-.542-1.261-.859-1.445-.859-.5m273.054 1.5c.02 1.65.244 2.204.498 1.231.254-.973.237-2.323-.037-3-.274-.677-.481.119-.461 1.769m17.963-.5c0 1.375.227 1.938.504 1.25.278-.687.278-1.812 0-2.5-.277-.687-.504-.125-.504 1.25m-93.963 1.5c.02 1.65.244 2.204.498 1.231.254-.973.237-2.323-.037-3-.274-.677-.481.119-.461 1.769" fill-rule="evenodd"/><path fill="#e87a89" stroke="#e87a89" d="M513.969 168.517c-6.091 1.903-12.234 7.367-15.381 13.682L496 187.393V276h-27v77h26.919l.291 8.25.29 8.25 4.25.307 4.25.308V386h-8V511.563l3.574 12.469c4.075 14.217 6.221 17.246 15.414 21.761l5.512 2.707 26.5.28c33.778.357 116.869-1.166 119.5-2.19 1.589-.619 1.692-.557.5.3-2.67 1.921 6.092 1.251 10.637-.812 11.826-5.37 16.722-13.862 17.199-29.828l.336-11.25h-7.067l-.368 5.25c-.202 2.888-.369.525-.372-5.25-.002-5.775.164-8.363.37-5.75.372 4.72.397 4.75 3.985 4.75h3.61l-.664-105.75c-.366-58.163-.665-122.062-.665-142L695 220h-6.948l-.304 15.25c-.167 8.387-.306 2.425-.309-13.25-.002-15.675.136-22.762.308-15.75l.313 12.75h7.154l-.401-15.25c-.525-19.938-4.249-27.482-17.003-34.443-4.534-2.475-156.109-3.205-163.841-.79m158.531 3.65c4.851 3.683 8.49 7.896 11.029 12.77 1.308 2.51 2.399 4.208 2.424 3.773.212-3.581-9.106-15.248-14.127-17.69-1.619-.786-1.413-.438.674 1.147m17.818 6.55c4.502 6.706 5.682 12.486 5.682 27.832 0 10.726.221 12.451 1.594 12.451 1.4 0 1.551-1.732 1.247-14.25-.375-15.425-2.723-22.552-9.526-28.913-2-1.87-1.8-1.294 1.003 2.88m-58.068 1.945c-.687.278-1.25 2.035-1.25 3.906 0 2.311-.896 4.404-2.797 6.531l-2.797 3.131-38.953.465c-43.801.523-44.685.393-46.12-6.78l-.617-3.084-10.838.334c-10.302.318-10.974.472-13.608 3.107l-2.77 2.772V275.5h32l.272-18.75.272-18.75H636v63h-48v52h-75l.022 83.75c.024 93.466-.227 90.024 6.85 93.684 3.259 1.685 75.658 2.08 126.128.687l22.5-.621 2.265-4.493 2.265-4.492-.615-162.508c-.344-91.071-1.012-164.098-1.518-166.126-2.424-9.711-8.681-12.859-25.397-12.78-6.6.031-12.562.284-13.25.561M515.848 183c-7.061 3.765-8.348 7.464-8.348 24 0 52.1.49 69 2 69 1.31 0 1.5-5.4 1.5-42.6v-42.6l3.4-3.4 3.4-3.4h11.183c8.501 0 11.084-.3 10.769-1.25-.756-2.281-19.526-2.085-23.904.25m170.231 8.583c.048 1.165.285 1.402.604.605.289-.722.253-1.585-.079-1.917-.332-.332-.568.258-.525 1.312m9.921 34.31c0 4.316.401 6.047 1.5 6.469 1.238.475 1.5-.554 1.5-5.893 0-5.084-.321-6.469-1.5-6.469-1.164 0-1.5 1.321-1.5 5.893m.341 102.857c.353 52.663.646 113.637.651 135.5.007 34.663.2 39.75 1.508 39.75 1.579 0 2.192-209.036.651-221.961-.574-4.818-.386-5.726 1.599-7.705 2.162-2.155 2.25-2.927 2.25-19.716v-17.473l-2.635-2.072c-1.449-1.14-3.092-2.073-3.651-2.073-.686 0-.807 31.139-.373 95.75m-370.143-91.263c-3.794 3.192-6.376 11.158-8.715 26.88-1.922 12.928-5.463 25.734-9.547 34.532-1.634 3.52-2.85 6.494-2.703 6.609 1.149.899 7.857 1.155 8.374.319.424-.686.907-.614 1.417.212 1.129 1.826 3.75.456 4.262-2.228.393-2.057.457-2.009.578.439.126 2.545.453 2.751 4.386 2.764 2.337.007 5.257.283 6.488.613 2.598.696 2.863.149 3.745-7.748l.629-5.621 4.694.477c2.582.262 6.359.826 8.395 1.253 4.585.963 4.763.782 3.725-3.788-.728-3.204-.524-3.995 1.52-5.901 3.218-3 5.359-10.14 6.087-20.299.334-4.675.834-9.295 1.11-10.266 1.341-4.718-5.371-14.04-10.911-15.154-8.466-1.701-8.732-1.67-8.732 1.011 0 3.378-1.706 6.409-3.607 6.409-1.366 0-1.362-.173.036-1.571 6.055-6.056-4.589-14.531-11.231-8.942m224.243 6.807c-.273.712-.359 8.024-.19 16.25l.307 14.956.221-15.75L551 244h72v49.954l-17.75.298-17.75.297 18.25.226L624 295v-52h-36.531c-28.965 0-36.635.268-37.028 1.294M335 291c0 1.683.675 2.004 4.25 2.024 2.337.013 5.938.416 8 .895 2.063.479 3.743.58 3.735.226-.104-4.376-15.985-7.5-15.985-3.145m353.479 106.5c0 48.95.122 68.829.271 44.175.149-24.654.149-64.704 0-89-.149-24.296-.271-4.125-.271 44.825m-308.841-83c.495 1.29 5.042 1.5 32.469 1.5H444v47.036l-23.605-.268-23.605-.268-2.433-6.5c-4.481-11.973-4.499-12-8.235-12-8.555 0-17.525 5.764-18.787 12.073-.322 1.61-.924 2.927-1.338 2.927-.979 0-3.103-2.561-2.568-3.096 1.259-1.259 6.293-16.978 5.336-16.659-.63.21-5.263 11.603-10.295 25.318l-9.149 24.937-7.661.292c-4.213.161-7.661-.064-7.662-.5-.035-11.488-4.437-43.589-6.585-48.016-10.249-21.122-40.919-19.805-49.838 2.141l-2.324 5.718-2.139-2.72c-2.747-3.492-2.784-3.438-5.672 8.226-3.485 14.075-3.443 14.359 2.121 14.359h4.562l-.573 4.25c-2.543 18.887-4.434 44.466-3.535 47.806.91 3.378 5.484 8.483 10.254 11.444 1.417.879-.715 7.879-17.663 58-17.116 50.62-20.35 60.942-17.802 56.816.383-.62 9.246-26.589 19.696-57.709l19-56.583 9.817-.012c8.896-.011 9.766.152 9.269 1.738-1.441 4.599-27.582 112.131-27.556 113.351.086 3.941 2.734-6.019 15.512-58.351L304.398 433l7.551.03 7.551.03 8.602 11.984 8.603 11.984 11.223 37.736c16.009 53.827 16.333 54.859 16.78 53.568.222-.643-5.246-20.18-12.151-43.418-6.905-23.237-12.44-42.364-12.3-42.504.14-.14 8.288 10.761 18.108 24.225 9.819 13.464 18.099 24.234 18.4 23.934.3-.301.874-2.239 1.276-4.308.655-3.38.741-3.144.844 2.336.1 5.279.413 6.23 2.339 7.09 1.866.833 2.176 1.66 1.924 5.15-.263 3.632-.069 4.088 1.526 3.597 1.004-.309.649.125-.79.964-1.935 1.129-2.788 2.641-3.277 5.814-.363 2.358-.924 5.75-1.245 7.538l-.585 3.25 7.362.18 7.361.18-7.5.57c-6.976.53-7.524.739-7.841 2.981l-.34 2.412 27.786-.691c29.354-.729 28.972-.687 28.05-3.089-.738-1.923-19.655-2.328-19.655-.421 0 .776-.464.738-1.5-.122-.825-.685-1.5-1.723-1.5-2.308 0-.585-.788-2.014-1.75-3.176-.962-1.162-.519-.853.986.686 2.617 2.676 3.15 2.798 12.25 2.798 5.233 0 9.514-.41 9.514-.911 0-1.803-6.215-6.093-9.077-6.264a4174.35 4174.35 0 0 1-5.767-.35c-1.577-.097-5.293-2.024-8.341-4.325-3.023-2.283-6.154-4.15-6.957-4.15-.803 0-2.429-1.995-3.613-4.432l-2.153-4.433-5.296.315c-2.913.173-4.171.115-2.796-.128 7.736-1.371 10-2.413 10.011-4.611.006-1.216 1.351-25.836 2.989-54.711s2.983-53.253 2.989-54.173c.016-2.457-4.703-7.643-8.865-9.743-5.884-2.967-16.001-5.044-29.644-6.085-7.035-.537-12.898-1.094-13.028-1.238-.91-1.001 6.959-19.665 7.945-18.846.679.563 19.181 1.084 45.127 1.27l43.976.315.299-28.25.299-28.25h-35.517c-31.161 0-35.448.184-34.943 1.5M601 421v103l28.75-.234 28.75-.234-28.25-.281-28.25-.282V319.031l28.25-.282 28.25-.281-28.75-.234L601 318v103m-307.148-91.609c-7.137 2.549-13.793 9.811-15.683 17.109-1.613 6.227-7.574 70.751-6.816 73.771 1.058 4.213 6.38 9.58 10.637 10.726 6.619 1.783 85.51.863 85.51-.997 0-1.193-1.944-1.602-9.5-2-10.616-.559-13.916-1.863-18.806-7.432-4.392-5.002-4.84-7.357-8.118-42.718-3.284-35.43-3.597-36.617-11.475-43.552-6.905-6.078-17.055-8.013-25.749-4.907m214.526 108.793c.785 95.188.315 89.602 7.959 94.655l4.025 2.661 70.069-.382c38.538-.21 70.969-.744 72.069-1.187 1.1-.442-30.452-.833-70.115-.868-70.219-.061-72.181-.115-74.623-2.036-5.862-4.611-5.762-3.434-5.762-67.766 0-78.76-.806-110.261-2.822-110.261-1.329 0-1.421 9.784-.8 85.184M531 379.75V389h54v-18.5h-54v9.25m-179.921 11.833c.048 1.165.285 1.402.604.605.289-.722.253-1.585-.079-1.917-.332-.332-.568.258-.525 1.312m179.588 7.084c-.367.366-.667 10.716-.667 23V444h55v-46h-26.833c-14.759 0-27.134.3-27.5.667m-387.158 14.504c-2.452 1.929-2.581 2.303-1.152 3.348 1.428 1.045 1.342 1.297-.775 2.262-2.12.965-4.739 8.395-3.424 9.71.498.498 13.732-2.047 14.466-2.782.33-.33 1.655-2.876 2.944-5.657l2.343-5.057-2.144-1.998c-2.908-2.709-8.697-2.626-12.258.174m16.136 3.327c-3.034 3.034-2.872 5.754.827 13.872 3.049 6.69 3.792 7.656 5.073 6.593.861-.715 1.249-2.038.91-3.104-.436-1.375-.086-1.859 1.348-1.859 2.486 0 4.946-7.732 3.387-10.645-2.694-5.034-8.799-7.603-11.545-4.857m216.855 3.133c-2.586 2.027-9.995 5.266-14.482 6.332-3.389.805-3.328.84 1.665.937 4.246.082 5.296.46 5.814 2.091 1.047 3.299-.292 4.009-7.556 4.009-3.818 0-6.941.341-6.941.758s4.687 9.393 10.416 19.945c5.729 10.553 10.627 19.999 10.884 20.992.897 3.461.657-5.356-.781-28.695-1.549-25.141-1.74-23.523 3.144-26.691 1.011-.655 1.387-1.204.837-1.218-.55-.015-1.9.678-3 1.54M150.236 435.16c-2.875 6.15-5.067 11.342-4.871 11.539.923.922 5.886-1.942 6.334-3.656.405-1.55.846-1.72 2.227-.857 1.695 1.058 9.148-1.46 9.025-3.05-.028-.35-1.723-3.903-3.768-7.896l-3.719-7.261-5.228 11.181m-6.155-5.792c-2.98.629-5.608 1.714-5.84 2.41-.479 1.435 3.637 15.677 4.33 14.984 1.673-1.672 9.127-18.74 8.146-18.65-.669.062-3.655.627-6.636 1.256M531 461.5v9.5h54v-19h-54v9.5m-346.804 2.988c-7.18 6.042-4.763 8.813 9.115 10.449 12.39 1.461 12.196 1.521 10.249-3.138-3.724-8.915-13.204-12.494-19.364-7.311m-13.199 9.362c-1.568 1.567-3.157 4.488-3.533 6.491-.376 2.003-1.048 3.416-1.493 3.141-2.872-1.775-4.86 5.051-2.94 10.098l1.03 2.711 2.346-2.204 2.346-2.203-.786 4.299c-.991 5.419 3.572 10.372 12.728 13.815 12.889 4.846 18.305 4.346 18.305-1.689 0-1.27.438-2.309.973-2.309.723 0-11.496-20.652-13.521-22.853-.179-.194-1.547 3.631-3.04 8.5s-2.895 8.333-3.115 7.698c-.22-.635.73-5.055 2.112-9.82l2.512-8.666-2.711-4.915c-3.31-6.004-6.675-6.632-11.213-2.094m17.841 9.9c2.669 4.262 6.608 10.563 8.754 14 2.146 3.438 4.184 6.25 4.527 6.25 1.171 0 1.984-8.297.919-9.362-1.449-1.449-1.293-2.638.345-2.638 1.709 0 2.585-3.071 2.603-9.119l.014-4.619-8.818-1.131c-14.522-1.863-13.942-2.323-8.344 6.619m188.49 3.75c.005 3.85.185 5.302.402 3.228.216-2.075.213-5.225-.008-7-.221-1.776-.398-.078-.394 3.772M530 514.5v9.5h55v-19h-55v9.5m167 .489c0 10.906-1.984 18.237-6.131 22.651-1.22 1.298-1.874 2.36-1.454 2.36 1.426 0 4.684-4.478 7.639-10.5 3.48-7.092 4.508-24.5 1.446-24.5-1.233 0-1.5 1.777-1.5 9.989m-8.805 5.511c.02 1.65.244 2.204.498 1.231.254-.973.237-2.323-.037-3-.274-.677-.481.119-.461 1.769M390.5 525.602c1.65.944 3.587 2.432 4.305 3.307 1.121 1.367 1.161 1.292.285-.528-.561-1.165-.81-2.327-.555-2.583.256-.255-.097-.507-.785-.559-.687-.052-2.375-.378-3.75-.724-2.232-.563-2.179-.446.5 1.087m294.642 3.937c-2.154 4.924-8.221 11.667-13.696 15.225-1.07.696-.596.619 1.054-.17 5.807-2.775 16.462-16.413 15.308-19.593-.169-.468-1.369 1.575-2.666 4.538M396.98 532.75c.766 1.581 1.898 2.21 3.805 2.114 2.649-.133 2.655-.148.254-.597-1.353-.254-3.066-1.205-3.805-2.114-1.169-1.437-1.202-1.359-.254.597" fill-rule="evenodd"/><path fill="#2a2ac4" stroke="#2a2ac4" d="M515.699 168.426c-11.558 3.107-18.727 12.493-19.426 25.431-.227 4.204-.044 7.17.407 6.591.451-.578 2.845-2.895 5.32-5.149l4.5-4.098-.301 12.149-.301 12.15-4.949 4.847c-4.912 4.811-4.949 4.895-4.949 11.25 0 7.578-.159 7.512 5.522 2.276l4.478-4.128v3.846c0 3.276-.745 4.6-5.019 8.928l-5.019 5.082.017 48.45c.01 26.647.312 53.961.672 60.699l.654 12.25H505v17h-8.07l.321 64.25.322 64.25 3.645 11.5c4.042 12.753 5.888 15.121 15.282 19.598l5 2.382 55.415.01 55.415.01 6.249-6 6.248-6h8.936c14.5 0 20.228-5.701 20.247-20.151l.009-7.349 6.991-6.316 6.99-6.317-.122-85.183c-.067-46.851-.405-115.334-.75-152.184l-.628-67-2.772-5.643c-3.234-6.584-9.93-13.136-16.552-16.196-4.513-2.086-6.098-2.171-45.382-2.453l-40.706-.292-10.294 9.895C554.847 192.14 553.722 193 549.618 193c-3.971 0-4.623-1.173-1.776-3.193 1.013-.719 6.949-6.145 13.191-12.057L572.382 167h-15.306l-7.751 7.383c-7.433 7.081-7.845 7.323-10.026 5.893-1.819-1.192-4.13-1.35-11.537-.789l-9.262.7 6.471-6.593 6.471-6.594-5.471.067c-3.009.038-7.632.649-10.272 1.359m154.848 1.393c12.762 7.559 16.752 15.492 17.446 34.681l.507 14h6l-.082-14.5c-.076-13.612-.247-14.848-2.79-20.182-4.173-8.754-12.591-15.081-21.786-16.377l-4.342-.611 5.047 2.989M693.191 183c2.028 4.001 2.32 6.247 2.633 20.25.297 13.297.589 15.75 1.877 15.75 1.316 0 1.464-1.894 1.073-13.75-.465-14.112-1.781-19.351-6.22-24.75-.98-1.193-.723-.183.637 2.5m-170.377-2.096c-6.892.739-10.534 3.186-13.564 9.116-2.222 4.349-2.25 4.9-2.239 43.942.011 41.254.334 47.038 2.62 47.038 1.138 0 1.369-7.432 1.369-44.05 0-55.266-.829-52.95 18.95-52.95 5.528 0 10.05-.36 10.05-.8 0-3.072-4.429-3.664-17.186-2.296m108.733.346c-.215.688-.668 2.918-1.006 4.957-1.314 7.918-.585 7.793-45.587 7.793h-39.776l-2.589-3.077c-1.424-1.692-2.589-3.717-2.589-4.5 0-1.141-2.098-1.423-10.6-1.423h-10.6l-3.4 3.4-3.4 3.4V281h33v-43h91v61.902l-24.75.3c-13.612.165-25.425.525-26.25.799-1.157.385-1.626 2.903-2.052 10.999l-.553 10.5-.197-10.75c-.197-10.714-.206-10.75-2.67-10.75h-2.472l-.308 13.75-.309 13.75-.22-13.75L576 301h-31v-19h-33.323l.676 35.5c.454 23.789.342 35.5-.338 35.5-.668 0-1.015-12.155-1.015-35.5 0-30.889-.195-35.5-1.5-35.5-1.666 0-2.231 229.329-.59 239.312 1.003 6.098 3.537 9.57 9.149 12.535l4.441 2.347 69.463-.557 69.463-.558 4.037-2.815c8.458-5.898 7.77 11.163 7.026-174.173-.413-103.088-1.024-165.375-1.638-167-1.369-3.627-5.761-8.085-9.569-9.714-4.331-1.853-29.163-1.959-29.735-.127m57.196 162.5c.134 68.062.52 131.963.859 142l.615 18.25H696.328l-.663-60.75c-.365-33.413-.664-97.312-.664-142L695 220h-6.5l.243 123.75M696 226c0 4.667.333 6 1.5 6s1.5-1.333 1.5-6-.333-6-1.5-6-1.5 1.333-1.5 6m0 28.532c0 23.157.381 24.613 4.927 18.833 1.898-2.412 2.072-3.954 2.058-18.25-.015-16.64-.711-19.758-4.735-21.228l-2.25-.823v21.468m-370.866-15.975c-2.838 3.608-4.855 10.35-6.589 22.029-2.45 16.496-6.647 31.908-10.961 40.252-.916 1.771-1.396 3.658-1.066 4.191.845 1.367 5.843 1.21 7.282-.229.933-.933 1.2-.933 1.2 0 0 2.094 3.027 1.293 3.969-1.05.89-2.215.905-2.217.968-.117.072 2.427 2.423 3.333 8.706 3.353 5.306.018 5.322-.032 5.517-17.318.088-7.792.34-12.727.56-10.966.522 4.18 2.848 4.856 9.78 2.841 6.458-1.877 9.653-5.467 7.679-8.628-2.588-4.143-.415-9.915 3.732-9.915 4.065 0 5.452-10.253 2.124-15.71-3.962-6.499-16.377-10.019-16.683-4.731-.203 3.52-3.231 6.786-4.96 5.351-2.295-1.904-3.387.047-3.581 6.399l-.189 6.191-.364-5.834c-.387-6.227.695-8.666 3.845-8.666 1.181 0 2.104-.975 2.529-2.671 1.55-6.173-9.362-10.03-13.498-4.772M550 269v26h74v-52h-74v26m1.45-23.729c-.269.699-.367 11.836-.219 24.75l.269 23.479 35.75.263 35.75.262V244h-35.531c-27.812 0-35.638.276-36.019 1.271M333.31 267.5c.005 3.3.192 4.529.415 2.732.222-1.797.218-4.497-.01-6-.229-1.503-.411-.032-.405 3.268m364.19 10.285c-1.746 1.248-.659 226.215 1.094 226.215 1.197 0 1.385-11.184 1.264-75.25-.184-96.958-1.042-151.906-2.358-150.965M349 287.608c0 1.161-.627 1.459-2.25 1.072-3.368-.803-12.401-1.752-11.25-1.182.55.273 4.15 1.064 8 1.758 6.017 1.085 7.045 1.576 7.318 3.494.302 2.114.067 2.198-4.5 1.599-2.65-.347-4.593-.4-4.318-.118.275.282 2.637.823 5.25 1.202l4.75.69v-3.003c0-1.651-.43-3.268-.956-3.593-.526-.325-.703-1.252-.393-2.059.309-.807.065-1.468-.544-1.468s-1.107.724-1.107 1.608m-12.75 6.081c.962.252 2.538.252 3.5 0 .962-.251.175-.457-1.75-.457s-2.712.206-1.75.457M380 314c0 .646 11.333 1 32 1h32v47.742l-7.971.695c-4.384.382-15.019.373-23.633-.021-13.206-.604-15.59-.497-15.197.684.38 1.138 4.98 1.45 24.634 1.668l24.167.268V313h-33c-21.333 0-33 .354-33 1m67 25.5c0 17 .358 26.5 1 26.5s1-9.5 1-26.5-.358-26.5-1-26.5-1 9.5-1 26.5m138.872-21.75c-1.243 1.586-1.208 1.621.378.378 1.666-1.307 2.195-2.128 1.372-2.128-.207 0-.995.788-1.75 1.75m-293.63 10.744c-6.341 2.756-10.222 6.647-13.606 13.643-3.27 6.759-3.35 6.836-5.134 4.865-.997-1.101-2.192-2.002-2.657-2.002-1.707 0-.773 2.718 1.744 5.076 2.553 2.39 2.582 2.578 2.069 13.424l-.519 11 1.401-13c2.355-21.85 7.777-30.139 21.96-33.57 2.714-.656 2.761-.731.5-.788-1.375-.035-3.966.573-5.758 1.352m17.258-.095c11.444 3.619 17.362 10.247 19.468 21.804l.966 5.297-.412-5.182c-.895-11.27-12.355-23.526-21.74-23.251-1.572.046-1.037.46 1.718 1.332m49.812 34.834c-4.943 13.347-8.663 24.717-8.265 25.267 1.231 1.704 2.291 8.127 1.155 7-.554-.55-1.168-1.9-1.365-3-.316-1.773-1.349-2.057-9.099-2.5l-8.742-.5.019 2.5c.202 25.901 6.52 35.044 24.757 35.827 8.98.386 11.88 1.309 10.603 3.375-.271.439-19.609.798-42.974.798-40.087 0-42.695-.109-46.288-1.942-3.945-2.013-6.805-5.508-8.157-9.972-.515-1.699-.814-1.969-.87-.786-.199 4.172 7.097 12.7 10.867 12.7.822 0 1.054.787.663 2.25-1.486 5.57-1.506 6.898-.044 3l1.595-4.25H293c6.931 0 9.982.369 10.338 1.25.403 1 .52 1 .583 0 .056-.887 2.351-1.25 7.897-1.25h7.817l8.433 11.666c4.841 6.698 9.393 14.257 10.689 17.75 1.925 5.189 2.463 4.24.608-1.073-.687-1.968 3.631 3.747 24.138 31.953 13.43 18.472 14.045 18.945 14.554 11.204.108-1.65.573-.089 1.033 3.468.585 4.524 1.423 6.928 2.789 8 1.074.843 2.638 3.208 3.475 5.257 1.505 3.681 1.491 3.74-1.138 5-2.073.994-2.823 2.269-3.396 5.775a400.652 400.652 0 0 1-1.253 7.25l-.517 2.75h6.975c9.184 0 9.023 1.828-.195 2.206-10.875.446-10.169 2.569.988 2.972 16.141.582 26.182-.076 26.182-1.717 0-1.172-1.766-1.461-8.941-1.461-11.804 0-12.916-1.829-1.344-2.211l8.785-.289-2.682-2.727c-1.645-1.673-4.263-2.98-6.772-3.382-3.346-.535-4.592-1.403-6.851-4.772-1.527-2.278-3.719-4.258-4.904-4.429-1.523-.22-2.574-1.571-3.629-4.668l-1.485-4.359 4.834-.665c8.151-1.121 7.433 2.463 10.414-51.998 3.495-63.844 3.448-61.512 1.307-64.783-3.999-6.111-18.665-10.532-37.982-11.452-6.462-.308-11.75-.891-11.75-1.296s3.852-11.187 8.561-23.959c4.708-12.772 8.375-23.407 8.149-23.633-.226-.226-4.455 10.509-9.398 23.856m17.188-16.821c-6.244 2.775-11.572 11.716-9.4 15.774 1.088 2.035 1.21 1.953 2.448-1.648 2.328-6.77 9.228-12.576 17.17-14.446 3.731-.879 3.708-.892-1.718-.952-3.025-.034-6.85.538-8.5 1.272M330.286 361.5c.008 2.75.202 3.756.432 2.236.229-1.52.223-3.77-.014-5-.237-1.23-.425.014-.418 2.764M331.3 372c0 3.025.187 4.262.416 2.75.229-1.512.229-3.988 0-5.5s-.416-.275-.416 2.75m66.7-4c0 .641 9.167 1 25.5 1s25.5-.359 25.5-1-9.167-1-25.5-1-25.5.359-25.5 1m-124.714 11.5c.008 2.75.202 3.756.432 2.236.229-1.52.223-3.77-.014-5-.237-1.23-.425.014-.418 2.764m59 3c.008 2.75.202 3.756.432 2.236.229-1.52.223-3.77-.014-5-.237-1.23-.425.014-.418 2.764m-60.014 7.5c0 2.475.195 3.488.434 2.25.238-1.238.238-3.262 0-4.5-.239-1.238-.434-.225-.434 2.25m240.201 64.5c0 37.4.124 52.555.277 33.677.152-18.878.152-49.478-.001-68-.152-18.522-.276-3.077-.276 34.323M271.272 400c0 2.475.195 3.488.434 2.25.238-1.238.238-3.262 0-4.5-.239-1.238-.434-.225-.434 2.25m271.978-1.219-12.25.281V444h54V398.373l-14.75.063c-8.112.035-20.263.19-27 .345M270.272 410c0 2.475.195 3.488.434 2.25.238-1.238.238-3.262 0-4.5-.239-1.238-.434-.225-.434 2.25M161 416.777c0 1.682 3.131 5.103 6.479 7.078l3.521 2.078v-2.512c0-3.248-4.192-7.421-7.455-7.421-1.4 0-2.545.35-2.545.777m217.529 1.175c-1.044 1.69-10 5.946-15.794 7.506l-5.235 1.41 5.215.066c4.003.051 5.444.495 6.203 1.913 1.571 2.935-.662 4.153-7.618 4.153-4.121 0-6.3.402-6.3 1.163 0 .639 4.727 9.826 10.504 20.415l10.505 19.252.643 10.835c.353 5.959 1.036 11.735 1.517 12.835.588 1.346.722.364.409-3-.256-2.75-1.261-20.019-2.233-38.375l-1.769-33.375 2.923-2.331c1.608-1.282 2.648-2.605 2.312-2.941-.336-.336-.913-.123-1.282.474M298.59 451.59c-2.104 8.529-3.641 15.693-3.415 15.918.226.226 2.132-6.568 4.235-15.098 2.104-8.529 3.641-15.693 3.415-15.918-.226-.226-2.132 6.568-4.235 15.098m-29.967 22.033c-4.724 14.16-8.419 25.914-8.212 26.122.208.207 4.242-11.209 8.966-25.368 4.724-14.16 8.419-25.914 8.212-26.122-.208-.207-4.242 11.209-8.966 25.368m25.456-3.04c.048 1.165.285 1.402.604.605.289-.722.253-1.585-.079-1.917-.332-.332-.568.258-.525 1.312m47.062-.583c0 .825.386 2.4.859 3.5.542 1.261.859 1.445.859.5 0-.825-.386-2.4-.859-3.5-.542-1.261-.859-1.445-.859-.5m-48.062 4.583c.048 1.165.285 1.402.604.605.289-.722.253-1.585-.079-1.917-.332-.332-.568.258-.525 1.312M343.141 477c0 .825.386 2.4.859 3.5.542 1.261.859 1.445.859.5 0-.825-.386-2.4-.859-3.5-.542-1.261-.859-1.445-.859-.5m-51.062 1.583c.048 1.165.285 1.402.604.605.289-.722.253-1.585-.079-1.917-.332-.332-.568.258-.525 1.312m-1 4c.048 1.165.285 1.402.604.605.289-.722.253-1.585-.079-1.917-.332-.332-.568.258-.525 1.312m-127.412 2.084c-1.084 1.084-.76 9.157.396 9.872.585.361 1.979-.172 3.098-1.185 2.024-1.832 2.031-1.818 1.352 2.71-.656 4.375-.53 4.688 3.272 8.122 6.502 5.875 26.19 11.657 26.229 7.704.007-.765.285-2.402.616-3.64.438-1.632.173-2.25-.962-2.25-4.861 0-17.934-5.333-21.583-8.805-3.722-3.54-3.868-3.912-3.129-7.954.807-4.411.17-5.303-1.956-2.741-1.688 2.034-2.666 1.885-3.29-.5-.509-1.949-2.704-2.673-4.043-1.333m126.412 1.916c.048 1.165.285 1.402.604.605.289-.722.253-1.585-.079-1.917-.332-.332-.568.258-.525 1.312m56.026-.083c-.052.55.984 4.375 2.302 8.5 1.317 4.125 2.437 7.05 2.488 6.5.052-.55-.984-4.375-2.302-8.5-1.317-4.125-2.437-7.05-2.488-6.5m-57.951 7.654c-.653 2.83-1.006 5.327-.784 5.55.223.222.956-1.895 1.63-4.704.674-2.809 1.027-5.307.783-5.55-.243-.243-.976 1.874-1.629 4.704m-4.071 16.429c-1.264 5.244-2.111 9.723-1.882 9.952.23.229 1.451-3.874 2.716-9.118 1.264-5.244 2.111-9.723 1.882-9.952-.23-.229-1.451 3.874-2.716 9.118M351.152 504c0 .825.607 3.075 1.348 5 .741 1.925 1.348 2.825 1.348 2 0-.825-.607-3.075-1.348-5-.741-1.925-1.348-2.825-1.348-2M531 514.5v9.5h54v-17.728l-4.64-.636c-2.551-.35-14.701-.636-27-.636H531v9.5m158.732-.087c-.867 14.543-6.422 24.501-17.077 30.611-4.991 2.863-5.057 2.958-2.065 2.967 1.7.005 5.872-1.381 9.273-3.08C691.131 539.28 696 529.898 696 513.818V505h-5.706l-.562 9.413m7.784-8.163c-.232.688-.555 5.975-.719 11.75-.242 8.547-.72 11.337-2.573 15-1.347 2.664-1.607 3.684-.637 2.5 3.977-4.855 5.798-10.924 6.223-20.75.3-6.915.089-9.75-.725-9.75-.631 0-1.337.563-1.569 1.25m-441.437 4.418c-.043.643-.338 1.993-.655 3-.547 1.741-.518 1.744.571.044.631-.983.925-2.333.655-3-.355-.875-.514-.887-.571-.044M354.152 514c0 .825.607 3.075 1.348 5 .741 1.925 1.348 2.825 1.348 2 0-.825-.607-3.075-1.348-5-.741-1.925-1.348-2.825-1.348-2M677.5 524.711c-20.17 19.243-23.5 22.485-23.5 22.883 0 1.152 8.617.163 12.96-1.487 9.73-3.697 17.61-12.43 20.058-22.229 2.405-9.626 1.348-9.533-9.518.833M395 521c0 2.346.442 3 2.026 3 1.929 0 1.951-.143.474-3-.853-1.65-1.765-3-2.026-3-.261 0-.474 1.35-.474 3m-113.921 2.583c.048 1.165.285 1.402.604.605.289-.722.253-1.585-.079-1.917-.332-.332-.568.258-.525 1.312m76.073.417c0 .825.607 3.075 1.348 5 .741 1.925 1.348 2.825 1.348 2 0-.825-.607-3.075-1.348-5-.741-1.925-1.348-2.825-1.348-2m155.852-.654c-.009 1.9 3.444 6.488 6.036 8.018 2.485 1.469 8.333 1.612 57.114 1.403l54.346-.233-55.097-.517c-60.192-.565-56.692-.188-60.561-6.517-1.009-1.65-1.836-2.619-1.838-2.154m-232.925 4.237c.048 1.165.285 1.402.604.605.289-.722.253-1.585-.079-1.917-.332-.332-.568.258-.525 1.312m116.265 2.167c1.807 2.856 3.221 3.888 5.929 4.329 4.438.722 8.376 3.24 9.219 5.894.589 1.857 1.477 2.027 10.611 2.027 9.792 0 9.948-.037 8.852-2.085-1.446-2.702-6.822-4.915-11.939-4.915-3.214 0-5.321-.926-10.232-4.5-5.061-3.682-6.968-4.5-10.499-4.5h-4.314l2.373 3.75m-147.732 2.874c-.886 2.603-1.579 5.215-1.539 5.804.04.59.939-1.367 1.997-4.348 1.058-2.981 1.751-5.593 1.539-5.804-.211-.211-1.11 1.745-1.997 4.348m30.467-1.041c.048 1.165.285 1.402.604.605.289-.722.253-1.585-.079-1.917-.332-.332-.568.258-.525 1.312M360.141 534c0 .825.386 2.4.859 3.5.542 1.261.859 1.445.859.5 0-.825-.386-2.4-.859-3.5-.542-1.261-.859-1.445-.859-.5m-82.062 1.583c.048 1.165.285 1.402.604.605.289-.722.253-1.585-.079-1.917-.332-.332-.568.258-.525 1.312m-1 4c.048 1.165.285 1.402.604.605.289-.722.253-1.585-.079-1.917-.332-.332-.568.258-.525 1.312m-31.963 3.515c-.614 1.76-1.084 3.696-1.046 4.301.039.606.716-.66 1.504-2.812.789-2.152 1.259-4.087 1.046-4.301-.214-.213-.891 1.052-1.504 2.812m30.963.485c.048 1.165.285 1.402.604.605.289-.722.253-1.585-.079-1.917-.332-.332-.568.258-.525 1.312m87.007.417c-.031.825.381 2.175.914 3 1.181 1.828 1.181.249 0-2.5-.567-1.319-.878-1.489-.914-.5m51.615.965c.76 2.904 19.666 3.186 19.111.285-.287-1.498-1.724-1.791-9.989-2.035-9.283-.274-9.634-.207-9.122 1.75" fill-rule="evenodd"/><path fill="#1d1c44" stroke="#1d1c44" d="M549.55 174.95c-4.347 4.372-8.343 7.678-8.881 7.345-.538-.332-.667-.1-.286.515.488.791-2.33 1.215-9.596 1.444l-10.287.324 10.25.211c10.026.206 10.25.262 10.25 2.556 0 1.29.788 3.046 1.75 3.902 1.622 1.444 2.74.614 15.25-11.314l13.5-12.872-7.023-.031-7.024-.03-7.903 7.95m17.916 5.434-14.033 13.332 35.533-.159c38.262-.17 39.552-.34 40.559-5.336a73.634 73.634 0 0 1 1.289-5.221l.74-2.5h14.973c16.956 0 19.646.959 23.369 8.334 2.217 4.392 3.332 83.014 3.425 241.666.03 50.6.214 88.85.409 85l.354-7 7.046-7.112 7.046-7.112-.838-150.888L686.5 192.5l-2.648-5.648c-3.372-7.192-9.512-13.332-16.704-16.704L661.5 167.5l-40-.224-40-.224-14.034 13.332M670 169.177c13.301 6.727 18.98 18.709 18.994 40.073.006 8.746.007 8.75 2.596 8.75h2.589l-.356-15.25c-.41-17.516-1.33-20.275-9.171-27.503-4.895-4.512-8.912-6.538-15.152-7.64l-4-.706 4.5 2.276m-158.556 1.197C502.107 174.722 496 184.816 496 195.9v4.537l6-5.937c3.3-3.266 6-5.598 6-5.184 0 .415 1.378-.816 3.062-2.733 1.683-1.918 3.94-3.766 5.014-4.107 1.074-.341 1.725-.989 1.446-1.44-.279-.452 2.431-3.569 6.022-6.928l6.529-6.108-6.786.01c-5.014.007-8.108.625-11.843 2.364M695.339 188c.348 1.375.64 8.688.647 16.25.012 11.549.254 13.75 1.514 13.75 3.007 0 1.167-28.87-2.027-31.796-.423-.387-.483.421-.134 1.796m-183.896 52.5c0 16.5.137 23.39.305 15.312.167-8.079.168-21.579 0-30-.167-8.422-.304-1.812-.305 14.688m-10.211-20.037-5.268 5.037.018 6.462.018 6.463 4.936-4.862c4.615-4.546 4.982-5.279 5.622-11.258.376-3.518.518-6.504.313-6.637-.204-.133-2.742 2.025-5.639 4.795M689 303.335c0 45.835.299 109.735.664 142l.664 58.665h5.172l-.234-116.75c-.128-64.212-.517-128.113-.863-142l-.629-25.25H689v83.335M696 226c0 4.667.333 6 1.5 6s1.5-1.333 1.5-6-.333-6-1.5-6-1.5 1.333-1.5 6m0 29c0 21.642.147 22.321 4.139 19.088 3.322-2.69 3.703-34.395.456-37.983C696.312 231.372 696 232.653 696 255m-369.709-16.75c-3.8 4.156-5.165 8.354-7.731 23.777-2.636 15.844-5.984 28.353-10.053 37.554l-2.343 5.296 2.959.65c1.778.39 3.541.166 4.418-.561 1.026-.852 1.459-.878 1.459-.088 0 2.257 2.862 1.043 3.838-1.628l1.004-2.75.079 2.652c.074 2.488.454 2.695 6.14 3.355 3.334.387 6.372.394 6.75.016.807-.805.902-23.624.189-45.023-.499-14.97-.496-15.001 1.752-15.32 4.952-.703 5.063-6.19.176-8.717-3.943-2.039-6.244-1.83-8.637.787M630 269v31h5v-62h-5v31m-129.269-25.653-4.768 4.153.532 17c.292 9.35.526 36.688.518 60.75L497 369h8v17h-8.205l.472 63.75.472 63.75 3.575 11.387c4.123 13.133 6.238 15.953 15.186 20.238l6 2.873 54.5-.042 54.5-.043 6.47-5.883 6.469-5.883-60.469.09c-65.719.099-65.339.128-70.673-5.506-5.642-5.959-5.416-.402-5.83-143.472-.211-73.018-.74-136.203-1.175-140.412l-.792-7.653-4.769 4.153m-159.125-.061c-.787 4.195-2.496 5.83-5.723 5.476-2.762-.304-2.948 2.518-1.48 22.488l.789 10.75h3.936c7.151 0 15.69-5.582 12.863-8.409-2.83-2.83-.497-10.591 3.183-10.591 2.095 0 4.826-4.81 4.826-8.5 0-6.232-6.85-13.268-13.83-14.204-3.808-.511-3.921-.437-4.564 2.99M545 287.5V300l21.75-.001h21.75l.144-2.5.144-2.499H550v-20h-5v12.5m7-3.523V293h36.937l-.219-8.75-.218-8.75-18.25-.273-18.25-.272v9.022M511.437 302c0 14.575.14 20.538.31 13.25.171-7.288.171-19.212 0-26.5-.17-7.288-.31-1.325-.31 13.25m185.728 88.417c.306 102.548.576 115.176 2.424 113.328 1.012-1.013-.801-225.745-1.822-225.745-.578 0-.808 42.963-.602 112.417M341.813 288.683c.721.289 1.584.253 1.916-.079.332-.332-.258-.568-1.312-.525-1.165.048-1.402.285-.604.604m5 1c.721.289 1.584.253 1.916-.079.332-.332-.258-.568-1.312-.525-1.165.048-1.402.285-.604.604m-11 4c.721.289 1.584.253 1.916-.079.332-.332-.258-.568-1.312-.525-1.165.048-1.402.285-.604.604m14.825.817c-.316.825-.139 1.5.393 1.5.533 0 .969-.675.969-1.5s-.177-1.5-.393-1.5c-.216 0-.652.675-.969 1.5m-5.825.183c.721.289 1.584.253 1.916-.079.332-.332-.258-.568-1.312-.525-1.165.048-1.402.285-.604.604M380 314c0 .646 11.333 1 32 1h32v48.963l-23.25.288-23.25.288 24.25.23L446 365v-52h-33c-21.333 0-33 .354-33 1m67 25c0 16.667.359 26 1 26s1-9.333 1-26-.359-26-1-26-1 9.333-1 26m-161.128-6.25c-1.243 1.586-1.208 1.621.378.378 1.666-1.307 2.195-2.128 1.372-2.128-.207 0-.995.788-1.75 1.75m33.128-.437c0 .172 1.462 1.635 3.25 3.25l3.25 2.937-2.937-3.25c-2.738-3.029-3.563-3.71-3.563-2.937m-37.128 4.437c-1.243 1.586-1.208 1.621.378.378 1.666-1.307 2.195-2.128 1.372-2.128-.207 0-.995.788-1.75 1.75M270 345.736c0 .611 1.191 2.527 2.648 4.257 2.664 3.167 4.417 2.758 4.258-.993-.048-1.134-.194-1.175-.595-.169-.385.965-1.328.568-3.421-1.437-1.59-1.522-2.89-2.269-2.89-1.658m107.5.751c-5.118 2.404-7.58 5.068-9.97 10.786-2.209 5.287-.156 5.472 2.897.261 2.985-5.093 7.861-9.159 13.321-11.107l3.752-1.339-3.5-.005c-1.925-.003-4.85.629-6.5 1.404m-48.421 4.096c.048 1.165.285 1.402.604.605.289-.722.253-1.585-.079-1.917-.332-.332-.568.258-.525 1.312m-54 9c.048 1.165.285 1.402.604.605.289-.722.253-1.585-.079-1.917-.332-.332-.568.258-.525 1.312m55 2c.048 1.165.285 1.402.604.605.289-.722.253-1.585-.079-1.917-.332-.332-.568.258-.525 1.312M399 368c0 .64 9 1 25 1s25-.36 25-1-9-1-25-1-25 .36-25 1m-124.921 1.583c.048 1.165.285 1.402.604.605.289-.722.253-1.585-.079-1.917-.332-.332-.568.258-.525 1.312M331.158 372c0 1.375.227 1.938.504 1.25.278-.687.278-1.812 0-2.5-.277-.687-.504-.125-.504 1.25m-58.079 7.583c.048 1.165.285 1.402.604.605.289-.722.253-1.585-.079-1.917-.332-.332-.568.258-.525 1.312m59 3c.048 1.165.285 1.402.604.605.289-.722.253-1.585-.079-1.917-.332-.332-.568.258-.525 1.312m-60 7c.048 1.165.285 1.402.604.605.289-.722.253-1.585-.079-1.917-.332-.332-.568.258-.525 1.312m80.394 2.258c.807 4.778-.884 5.854-1.823 1.159l-.6-3h-17.238l.56 4.75c.308 2.613.856 7.675 1.218 11.25.836 8.264 1.781 10.713 5.721 14.835 4.294 4.492 8.064 6.34 11.43 5.605 2.123-.463 2.413-.356 1.259.464-1.106.786.6 1.024 6.5.908l8-.157L361 427c-3.575-.36-5.053-.732-3.285-.827 4.571-.246 12.005-2.897 17.496-6.239 2.592-1.578 4.93-2.515 5.196-2.084.266.43-.841 1.566-2.461 2.523-3.593 2.122-3.527-1.002-.91 43.257 1.12 18.939 1.947 34.983 1.838 35.653-.413 2.529 1.419 15.717 2.184 15.717.439 0 1.506.707 2.371 1.571.908.909 1.571 1.095 1.571.441 0-.621.412-.875.916-.564.504.312 3.191.079 5.969-.517 6.271-1.345 5.395 4.358 8.593-55.931 3.191-60.166 3.191-57.986.015-61.413-5.124-5.529-18.513-9.177-37.706-10.275l-11.017-.631.703 4.16m-81.394 7.742c.048 1.165.285 1.402.604.605.289-.722.253-1.585-.079-1.917-.332-.332-.568.258-.525 1.312M162.23 418.25c2.066 3.152 8.13 7.169 8.617 5.708 1.016-3.048-4.238-7.958-8.516-7.958-1.403 0-1.414.245-.101 2.25M271 422.941c0 .518.445 1.216.989 1.552.566.35.734-.051.393-.941-.665-1.732-1.382-2.049-1.382-.611m2 3.437c0 .207.788.995 1.75 1.75 1.586 1.243 1.621 1.208.378-.378-1.307-1.666-2.128-2.195-2.128-1.372M326 432c-23.375.293-38 .669-32.5.835 5.5.166 13.655.244 18.122.175l8.122-.128 8.01 10.904c8.417 11.458 10.81 15.225 10.458 16.464-.116.413.198.638.7.5.502-.137 7.978 9.425 16.615 21.25 22.953 31.426 20.685 28.659 21.556 26.304.741-2.003.673-4.57-.64-24.14l-.694-10.335-7.487-13.665c-4.119-7.515-9.018-16.702-10.888-20.414l-3.399-6.75h6.953c3.825 0 7.232-.45 7.572-1 .34-.55.479-.895.309-.766-.17.128-19.434.473-42.809.766m186.443 42.5c0 16.5.137 23.39.305 15.312.167-8.079.168-21.579 0-30-.167-8.422-.304-1.812-.305 14.688m-348.776 10.167c-.932.931-.806 7.565.172 9.107.617.973 1.241.795 2.64-.75 2.792-3.085 3.345-2.467 2.387 2.666-.803 4.296-.658 4.918 1.727 7.408 3.29 3.433 12.564 7.629 19.834 8.973 6.543 1.21 7.196.953 7.785-3.059.393-2.681.158-3.014-2.135-3.033-5.168-.042-16.322-4.813-20.321-8.692-3.59-3.481-3.855-4.106-3.288-7.731l.618-3.943-2.104 1.904c-2.177 1.97-3.927.97-3.967-2.267-.016-1.323-2.224-1.708-3.348-.583M690 512.895c0 13.977-5.882 25.185-16.986 32.368l-4.514 2.92 3.5-.689c14.582-2.874 22.936-14.017 23.795-31.744l.472-9.75H690v6.895m7.755 3.355c-.279 5.638-.795 11.15-1.146 12.25-.351 1.1.114.425 1.035-1.5 1.912-4.001 3.215-21 1.609-21-.557 0-1.213 4.485-1.498 10.25m-27.037 15.571c-16.677 15.581-16.761 15.681-13.421 15.979 8.029.717 20.989-7.285 26.153-16.149 2.465-4.231 5.043-12.731 4.403-14.519-.194-.544-7.905 6.066-17.135 14.689m.426-5.071c-1.091 2.55-1.066 2.609.34.809.834-1.068 1.516-2.305 1.516-2.75 0-1.52-.678-.81-1.856 1.941m-286.362-.524c-2.093.708-2.865 1.765-3.355 4.597a257.745 257.745 0 0 1-1.426 7.427l-.788 3.75h15.477c16.3 0 17.374-.37 12.229-4.211-1.35-1.008-3.955-1.936-5.788-2.061-2.748-.188-3.762-.959-5.779-4.397-2.779-4.735-6.439-6.503-10.57-5.105M397 530c1.815 3.559 2.442 4 5.675 4 2.94 0 4.362.765 7.44 4l3.805 4h8.623c9.239 0 10.091-.691 5.281-4.282-1.426-1.065-5.19-2.215-8.539-2.61-4.482-.528-6.971-1.476-9.887-3.762-5.389-4.226-7.768-5.346-11.353-5.346h-3.086l2.041 4m121.733 1.124c.679.684 1.486.991 1.793.683.308-.308-.247-.867-1.233-1.243-1.425-.542-1.54-.428-.56.56m147.139 1.626c-1.243 1.586-1.208 1.621.378.378 1.666-1.307 2.195-2.128 1.372-2.128-.207 0-.995.788-1.75 1.75m-133.122-.003c6.188.175 16.313.175 22.5 0 6.188-.176 1.125-.319-11.25-.319s-17.437.143-11.25.319m126.063 2.936c.721.289 1.584.253 1.916-.079.332-.332-.258-.568-1.312-.525-1.165.048-1.402.285-.604.604M415 545c0 1.86.667 2 9.5 2 5.225 0 9.5-.36 9.5-.8 0-2.314-2.961-3.2-10.7-3.2-7.633 0-8.3.161-8.3 2m-36 .435c0 1.169 1.754 1.546 8.25 1.775 14.103.496 25.915-.214 25.477-1.532-.648-1.948-33.727-2.186-33.727-.243" fill-rule="evenodd"/></svg>